<?xml version="1.0" encoding="utf-8"?>
<!-- Generator: Adobe Illustrator 27.7.0, SVG Export Plug-In . SVG Version: 6.00 Build 0)  -->
<svg version="1.1" id="Layer_1" xmlns="http://www.w3.org/2000/svg" xmlns:xlink="http://www.w3.org/1999/xlink" x="0px" y="0px"
	 viewBox="0 0 1417.32 1417.32" style="enable-background:new 0 0 1417.32 1417.32;" xml:space="preserve">
<style type="text/css">
	.st0{fill:#3CA0BD;}
	.st1{fill:#646765;}
	.st2{fill:#FACC58;}
	.st3{fill:#A78A2F;}
	.st4{fill:#527CBE;}
</style>
<g>
	<path class="st0" d="M1405.13,744.29c0.67-14.98,2.08-29.93,2.07-44.89c-0.02-16.24-1.84-32.48-1.95-48.71
		c-0.21-29.53-5.51-58.41-10.9-87.21c-7.52-40.01-19.45-78.8-34.41-116.7c-15.45-39.11-33.87-76.66-55.85-112.54
		c-16.93-27.64-36.17-53.53-56.32-78.84c-27.96-35.11-59.92-66.31-94.63-94.46c-23.12-18.72-47.72-35.76-72.56-52.19
		c-43.66-28.9-90.52-51.56-140.04-68.7C901.28,26.47,861.37,15.38,820.3,9.1c-26.49-4.04-53.23-7.84-79.96-8.7
		c-32.05-1.05-64.28,0.06-96.28,2.3c-25.88,1.82-51.73,5.58-77.21,10.48c-38.88,7.46-76.79,18.67-113.87,32.93
		c-51.66,19.85-100.7,44.72-146.08,76.29c-46.36,32.25-88.88,68.97-126.34,111.56c-24.58,27.96-47.36,57.15-67.57,88.34
		c-22.86,35.31-42.36,72.41-58.45,111.25C35.5,479.5,20.64,526.83,12.69,575.93c-5.3,32.82-9.7,65.95-11.53,99.09
		c-1.78,31.77-2.03,63.82,3.14,95.55c4.82,29.53,8.42,59.29,14.19,88.61c7.76,39.34,20.04,77.63,35.8,114.37
		c13.02,30.39,28.98,59.63,45.17,88.53c25.92,46.26,58.41,87.94,95.09,126.08c19.49,20.25,40.57,39.11,61.99,57.34
		c46,39.17,96.97,70.73,151.74,96.2c47.05,21.88,95.69,39.15,146.62,49.15c28.11,5.51,56.54,10.25,85.03,12.95
		c21.92,2.07,44.2,0.4,66.33,0.4v0.17c17.1,0,34.29,1.11,51.28-0.27c26.3-2.1,52.77-4.3,78.59-9.39
		c29.55-5.83,58.77-13.87,87.58-22.76c38.48-11.86,75.95-26.78,110.89-47.11c24.86-14.46,49.84-28.88,73.67-44.95
		c43.26-29.13,82.3-63.5,116.72-102.67c19.79-22.51,38.98-45.77,56.21-70.25c16.29-23.12,30.12-48.04,44.28-72.62
		c16.49-28.61,30.01-58.73,40.62-89.97c12.91-38.04,25.48-76.31,30.95-116.34c3.12-22.86,5.49-45.81,7.96-68.74
		C1405.53,754.35,1404.92,749.28,1405.13,744.29z M1164.14,1164.86C1047.32,1281.4,904.9,1345.5,739.9,1353.65
		c-188.71,9.31-353.5-51.62-489.04-183.49C122.79,1045.56,56.02,892.09,53.58,712.85c-2.54-185.02,63.48-343.78,194.43-473.61
		C374.94,113.38,530.45,50.97,708.9,52.06c178.27,1.09,332.35,65.93,458.1,192.63c125.66,126.59,187.35,280.67,188.96,459.17
		C1354.37,883.58,1291.14,1038.18,1164.14,1164.86z"/>
	<g>
		<path class="st1" d="M797.49,868.5c58.82,0,117.64,0.06,176.46-0.11c4.74-0.01,6.08,1.5,5.77,5.9c-0.29,3.99-0.05,8.02-0.03,12.04
			c0.02,7-1.05,8.76-7.91,10.17c-17.95,3.69-34.89,10.46-52.05,16.55c-30.18,10.7-58.19,25.54-82.96,45.82
			c-20.94,17.15-37.72,37.45-43.87,64.91c-3.94,17.59-0.17,33.69,8.47,48.85c10.95,19.21,27.9,31.49,48.23,39.27
			c4.11,1.58,5.62,3.58,5.52,7.9c-0.26,10.76-0.21,21.53-0.06,32.3c0.04,2.91-0.75,3.8-3.7,3.69c-19.9-0.78-39.81,0.9-59.71-0.08
			c-5.41-0.27-9.96-0.76-14.84-4.79c-8.9-7.34-20.14-10.56-31.62-12.71c-30.57-5.75-60.98-5.82-91.19,1.9
			c-9.93,2.54-19.38,6.5-26.85,13.97c-1.61,1.61-3.55,1.74-5.57,1.67c-21.36-0.72-42.72,1.08-64.1-0.09
			c-4.07-0.22-5.25-1.09-5.13-5.19c0.29-10.03,0.31-20.08-0.09-30.1c-0.21-5.17,1.92-7.29,6.56-8.98
			c24.1-8.8,45.1-22.34,61.35-42.43c13.29-16.43,19.34-34.96,14.3-56.11c-2.92-12.26-14.7-21.21-27.11-21.13
			c-10.23,0.06-20.46-0.02-30.69-0.01c-2.61,0-5.13-0.01-6.71-2.67c-1.27-2.14-3.55-1.53-5.46-1.64
			c-22.81-1.33-45.37-3.8-67.44-10.38c-27.95-8.32-52.65-21.98-74.35-41.4c-11.34-10.15-21.55-21.27-31.1-33.05
			c-2.29-2.83-4.85-5.54-2.82-9.77c2.05-4.28,5.74-4.55,9.68-4.55c55.17,0.01,110.33,0.01,165.5,0c2.88,0,6.24,1.12,6.53-3.93
			c0.12-2.15,2.98-1.55,4.7-1.56c11.51-0.03,23.02-0.14,34.52,0.15c4.17,0.1,5.34-1.18,5.18-5.29c-0.37-9.09-0.16-9.08,8.86-9.08
			C681.68,868.51,739.58,868.5,797.49,868.5z M876.13,891.21c-1.8-1.57-3.44-1.32-5.03-1.33c-13.32-0.08-26.65-0.06-39.97-0.26
			c-70.86-1.09-141.71,0.97-212.57,0.29c-2.99-0.03-4.14,0.71-4.28,3.92c-0.84,19.33-0.88,38.67-0.45,58
			c0.12,5.52,1.05,11.03,1.61,16.54c1.24-1.92,1.41-3.8,1.42-5.69c0.1-20.62,1.19-41.19,2.87-61.74c0.35-4.33,1.59-5.42,5.8-5.48
			c69.38-1,138.75-2.73,208.14-3.14C847.66,892.24,861.69,892.59,876.13,891.21z M629.93,1109.29c1.1-0.87,2.28-1.66,3.3-2.61
			c12.85-12.03,26.89-22.44,42.68-30.29c11.67-5.8,23.67-10.87,37.23-7.29c10.66,2.81,20.52,7.42,29.87,13.26
			c11.06,6.91,21.06,15.25,32.75,23.95c-3.89-6.42-8.63-9.77-12.94-13.57c-11.95-10.55-24.82-19.73-39.16-26.78
			c-13.74-6.75-27.4-6.74-40.9,0.7c-3.67,2.02-7.36,4.02-10.95,6.2C655.81,1082.57,641.76,1094.6,629.93,1109.29z M569.38,912.86
			c-1.52,18.97-3.99,37.79-3.89,56.74c0.03,5.23-1.61,6.21-6.4,6.19c-20.52-0.1-40.74-2.66-60.91-6.16
			c-8.21-1.43-15.85-4.81-24.37-6.75c1.05,2.58,3.04,2.81,4.6,3.55c10.28,4.93,21.3,7.31,32.37,9.7c17.73,3.83,35.6,5.74,53.74,5.58
			c4.68-0.04,6.41-1.51,6.35-6.26c-0.24-18.59-0.17-37.19-0.28-55.78C570.59,917.37,570.81,914.99,569.38,912.86z M803.7,986.28
			c-17.8,20.14-25.88,43.41-19.86,69.77c5.85,25.62,23.19,42.21,47.01,52.51c-20.63-13.3-36.6-30.45-41.97-54.91
			C783.52,1029.28,791.19,1007.12,803.7,986.28z M642.09,1027.5c-5.11,34.08-24.67,57.77-53.14,75.19
			C619.93,1089.37,644.74,1059.94,642.09,1027.5z M625.94,1145.19c0.41-10.1,1.17-19.23,0.1-28.44c-0.38-3.26-1.85-4.04-4.53-3.96
			c-13.52,0.43-27.04,0.45-41.49-0.15c2.85,1.71,5.04,1.65,7.18,1.82c9.06,0.71,18.12,1.37,27.17,2.12c8.14,0.68,8.2,0.72,9,8.86
			C623.98,1131.74,623.59,1138.16,625.94,1145.19z M781.89,1140.29c2.49-1.85,2.52-3.99,2.64-6.12c0.21-3.81,0.47-7.61,0.71-11.42
			c0.25-4.07,1.94-5.89,6.47-6.08c11.28-0.48,22.52-1.65,33.78-2.54c-0.01-0.48-0.02-0.96-0.03-1.44c-13.01,0-26.02-0.03-39.03,0.03
			c-2.82,0.01-4.45,1.78-4.5,4.49C781.81,1124.89,781.89,1132.59,781.89,1140.29z"/>
		<path class="st1" d="M1017.04,611.35c5.01,0.33,7.69,3.5,9.85,7.23c9.12,15.78,18.17,31.59,27.29,47.37
			c21.88,37.86,43.79,75.72,65.69,113.57c12.23,21.14,24.48,42.26,36.73,63.39c5.59,9.64,4.49,13.79-5.22,19.56
			c-26.49,15.74-53.13,31.24-80.1,46.15c-3.67,2.03-7.1,4.48-10.79,6.45c-7.93,4.22-12.65,2.75-17.12-5.17
			c-5.82-10.32-11.49-20.72-17.41-30.97c-30.61-53.03-61.27-106.03-91.93-159.04c-6.66-11.52-13.4-22.98-20.02-34.53
			c-5.58-9.74-4.52-13.35,5.13-18.87c29.91-17.13,59.79-34.29,89.71-51.4C1011.51,613.57,1014.11,611.78,1017.04,611.35z
			 M1075.47,893.55c5.73-1.42,10.52-4.75,15.53-7.56c17.8-10,35.48-20.21,53.28-30.21c3.85-2.16,4.46-4.95,2.71-8.65
			c-1.09-2.31-2.13-4.65-3.39-6.85c-12.71-22.12-25.47-44.21-38.21-66.31c-16.75-29.05-33.48-58.11-50.24-87.15
			c-11.2-19.41-22.35-38.86-33.72-58.18c-4.33-7.36-4.98-7.52-12.39-3.3c-12.67,7.22-25.07,14.92-37.74,22.14
			c-8.49,4.84-16.96,9.66-24.79,15.61c3.58-1.16,6.95-2.72,10.23-4.47c18.02-9.6,36-19.26,54.02-28.84c2.4-1.27,4.45-2.58,6.62,1.27
			c17.62,31.28,35.48,62.42,53.32,93.57c23.01,40.17,46,80.36,69.17,120.44c2.51,4.34,1.83,6.18-2.48,8.81
			C1116.46,866.61,1095.48,879.31,1075.47,893.55z"/>
		<path class="st1" d="M443.37,623.09c-0.37,14.36-2.68,29.87-4.3,45.45c-1.41,13.59-2.97,27.16-4,40.78
			c-0.4,5.31-2.02,9.92-4.61,14.38c-17.75,30.55-35.53,61.09-53.24,91.66c-12.97,22.38-25.84,44.82-38.8,67.21
			c-1.46,2.52-2.97,5.05-4.85,7.26c-2.69,3.17-6.01,3.71-9.78,1.56c-22-12.56-44.03-25.06-66.04-37.6c-1.58-0.9-3.11-1.9-4.64-2.89
			c-6.45-4.15-7.51-7.62-3.64-14.66c5.09-9.26,10.58-18.3,15.86-27.45c25.67-44.5,51.34-89,76.95-133.53
			c2.96-5.15,6.65-9.5,11.49-12.98c23.11-16.6,46.18-33.26,69.23-49.93c4.12-2.98,8.06-4.57,12.99-1.35
			C440.08,613.67,444.34,615.86,443.37,623.09z M408.16,634.4c-0.3-0.31-0.59-0.61-0.89-0.92c-0.32,0.15-0.69,0.24-0.97,0.45
			c-14.67,11.1-29.16,22.44-44.07,33.21c-6.8,4.91-12.55,10.37-16.57,17.78c-21.99,40.5-45.82,79.95-68.6,120
			c-5.49,9.65-11.2,19.19-16.47,28.96c-1.79,3.31-3.12,7.37,1.01,10.29c9.2,6.5,19.62,10.72,29.67,15.69
			c-0.58-1.05-1.3-1.89-2.19-2.43c-6.21-3.81-12.4-7.65-18.71-11.3c-7.55-4.36-8.4-6.3-4.3-13.88c5.46-10.08,11.2-20.01,16.95-29.94
			c21.99-37.97,44.02-75.92,66.08-113.86c3.11-5.34,6.07-10.86,10.97-14.87c7.74-6.35,15.59-12.59,23.35-18.91
			C391.69,647.93,399.91,641.16,408.16,634.4z"/>
		<path class="st2" d="M580.22,999.76c-6.73,3.91-12.56,7.36-18.44,10.72c-35.47,20.26-70.95,40.5-106.42,60.77
			c-18.84,10.76-37.67,21.54-56.45,32.41c-1.56,0.9-4.91,1.6-3.86,3.64c1.12,2.19,4.26,1.27,6.35,0.11
			c5.58-3.09,11.06-6.35,16.6-9.52c53.5-30.64,107.25-60.85,160.28-92.28c10.44-6.19,20.48-6.67,31.31-6.43
			c8.15,0.18,15.48,7.97,17.68,17.69c0.24,1.06,0.32,2.16,0.54,3.23c1.88,8.9-1.1,14.17-9.59,18.98
			c-46.16,26.21-91.82,53.28-137.69,80.01c-20.02,11.66-40.12,23.19-60.14,34.83c-4.38,2.55-8.16,2.03-10.98-2.1
			c-8.52-12.52-15.83-25.78-22.86-39.17c-2.6-4.95,0.68-8.47,4.66-10.85c10.8-6.46,21.72-12.71,32.64-18.97
			c44.63-25.58,89.29-51.11,133.9-76.73C564.39,1002.3,570.92,998.54,580.22,999.76z"/>
		<path class="st2" d="M800.11,1040.52c-0.04-13.56,3.19-24.84,8.33-35.68c1.92-4.05,3.71-5.6,8.45-2.84
			c29.28,17.08,58.74,33.84,88.17,50.65c29.42,16.81,58.88,33.56,88.32,50.35c2.53,1.44,4.98,3.01,7.51,4.44
			c1.66,0.94,3.95,1.66,4.94-0.14c1.27-2.31-1.52-2.86-2.89-3.64c-17.89-10.22-35.87-20.3-53.75-30.54
			c-38.76-22.21-77.48-44.5-116.23-66.73c-5.05-2.9-10.07-5.92-15.35-8.35c-2.35-1.08-3.15-2.04-2.44-4.42
			c0.91-3.03,2.97-2.3,4.76-1.31c6.86,3.79,13.64,7.72,20.44,11.6c52.56,30.03,105.11,60.06,157.66,90.11
			c4.27,2.44,8.53,4.93,12.69,7.55c5.45,3.43,7.16,8.04,4,13.53c-7.19,12.46-14.76,24.71-22.45,36.88
			c-2.71,4.28-6.78,4.35-11.02,1.88c-51.41-29.85-102.82-59.68-154.23-89.52c-6.31-3.66-12.46-7.61-18.92-10.98
			C802.1,1050.26,798.46,1046.23,800.11,1040.52z"/>
		<path class="st2" d="M591.78,874.92c-8.36,0-16.72-0.03-25.08,0.02c-1.51,0.01-4.03-0.69-3.92,1.66c0.25,5.5-3.23,4.34-6.48,4.33
			c-11.69-0.02-23.38,0-35.06,0.24c-6.21,0.13-11.5-1.51-16.97-4.74c-27.48-16.22-55.27-31.92-82.9-47.89
			c-10.1-5.84-20-12.04-30.13-17.83c-2.58-1.47-3.01-2.89-1.55-5.18c6.57-10.31,12-21.25,17.74-32.01c1.93-3.62,3.38-3.9,7.08-1.73
			c23.43,13.73,47.09,27.05,70.65,40.57c24.18,13.88,48.29,27.89,72.52,41.69c10.13,5.77,19.94,12.11,30.54,17.06
			c1.42,0.66,2.68,1.68,4.01,2.53C592.07,874.07,591.93,874.5,591.78,874.92z"/>
		<path class="st2" d="M833.82,860.54c2.78-3.13,6.43-4.06,9.47-5.83c24.74-14.41,49.57-28.65,74.38-42.94
			c14.37-8.28,29.16-15.86,43.04-25c2.62-1.72,4.75-2.24,6.63,1.22c5.83,10.72,11.77,21.38,17.86,31.96
			c2.08,3.61,1.81,5.25-2.29,7.46c-17.5,9.42-34.99,18.92-51.78,29.58c-4.03,2.56-8.05,3.85-12.81,3.82
			c-24.11-0.19-48.22-0.2-72.33-0.28C842.17,860.53,838.36,860.54,833.82,860.54z"/>
		<path class="st2" d="M416.95,761.49c0.99,0.5,2.16,1.01,3.26,1.65c55.33,31.82,110.66,63.65,166,95.46
			c6.01,3.45,12.07,6.82,18.14,10.17c1.9,1.05,3.7,2.25,2.41,4.62c-1.35,2.48-4.01,2.18-5.76,0.96
			c-14.4-10.03-30.17-17.68-45.31-26.41c-24.96-14.4-50.04-28.59-75.07-42.87c-21.38-12.19-42.76-24.38-64.13-36.6
			c-1.68-0.96-3.85-1.77-2.91-4.49C414.1,762.48,415.04,761.48,416.95,761.49z"/>
		<path class="st3" d="M289.03,722.36c2.93-4.31,5.52-7.38,7.27-10.87c2.23-4.43,5.39-4.36,9.09-2.76
			c8.89,3.83,8.88,4.07,3.97,12.53c-5.38,9.28-11.58,18.09-15.99,27.92c-0.81,1.81-1.94,3.29-4.18,2.09
			c-4.96-2.67-10.08-5.06-14.31-8.94c-2.8-2.58-3.64-5.45-1.77-8.77c6.43-11.41,12.85-22.83,19.5-34.11c2.35-3.99,6.05-5,10.39-2.89
			c4.26,2.07,8.59,4.03,12.31,7c1.24,0.99,2.72,2.28,1.42,4.13c-1.15,1.64-2.88,1.25-4.48,0.69c-13.8-4.8-13.81-4.81-21.21,7.59
			c-0.74,1.25-1.48,2.5-2.15,3.79C288.78,720.01,288.93,720.42,289.03,722.36z"/>
		<path class="st3" d="M1114.11,722.35c-2.98-5.5-5.73-11.14-9.04-16.43c-1.82-2.91-5.07-2.53-7.94-1.35
			c-3.03,1.24-5.94,2.78-8.96,4.02c-1.35,0.55-3.07,0.75-3.92-0.75c-0.71-1.25,0.2-2.68,1.15-3.4c5.23-4.01,10.78-7.6,17.4-8.76
			c3.09-0.54,5.12,1.95,6.52,4.27c6.47,10.78,12.82,21.63,19.06,32.55c2.63,4.61,1.16,8.52-3.05,11.34
			c-3.93,2.64-8.08,4.93-12.05,7.51c-2.05,1.33-3.06,0.14-3.91-1.35c-6.47-11.4-12.87-22.84-19.34-34.24
			c-1.16-2.05-0.9-3.23,1.42-4.16c1.84-0.73,3.46-2,5.2-2.99c3.58-2.05,6.19-1.93,8.38,2.35c2.18,4.27,5.3,8.05,8.01,12.05
			C1113.39,722.78,1113.75,722.57,1114.11,722.35z"/>
		<path class="st2" d="M811.95,860.59c10.69-6.12,21.38-12.23,32.07-18.35c37-21.18,74-42.35,110.99-63.54
			c0.47-0.27,0.89-0.64,1.36-0.91c1.96-1.11,3.83-1.3,5.25,0.82c1.77,2.64-0.39,3.48-2.14,4.48c-8.07,4.6-16.14,9.19-24.2,13.81
			c-35.07,20.1-70.16,40.16-105.18,60.34C824.5,860.47,818.33,860.53,811.95,860.59z"/>
	</g>
	<path class="st4" d="M694.12,371.68c-2.51,0-5.18,0.96-8.01,2.85c-3.04,2.01-4.56,4.2-4.56,6.58c0,3.43,0.47,5.46,1.41,6.17
		c0.75,0.49,3.11,0.73,7.09,0.73c8.33,0,12.51-2.96,12.51-8.87C702.56,374.17,699.73,371.68,694.12,371.68z M694.12,371.68
		c-2.51,0-5.18,0.96-8.01,2.85c-3.04,2.01-4.56,4.2-4.56,6.58c0,3.43,0.47,5.46,1.41,6.17c0.75,0.49,3.11,0.73,7.09,0.73
		c8.33,0,12.51-2.96,12.51-8.87C702.56,374.17,699.73,371.68,694.12,371.68z M570.73,376.29c-2.21-2.29-5.08-3.43-8.61-3.43
		c-3.51,0-6.38,1.14-8.55,3.38c-2.18,2.27-3.28,5.16-3.28,8.7c0,3.32,1.16,6.17,3.45,8.55c2.31,2.38,5.1,3.58,8.38,3.58
		c3.49,0,6.36-1.14,8.57-3.43c2.23-2.27,3.32-5.16,3.32-8.7C574.01,381.45,572.92,378.56,570.73,376.29z M694.12,371.68
		c-2.51,0-5.18,0.96-8.01,2.85c-3.04,2.01-4.56,4.2-4.56,6.58c0,3.43,0.47,5.46,1.41,6.17c0.75,0.49,3.11,0.73,7.09,0.73
		c8.33,0,12.51-2.96,12.51-8.87C702.56,374.17,699.73,371.68,694.12,371.68z M694.12,371.68c-2.51,0-5.18,0.96-8.01,2.85
		c-3.04,2.01-4.56,4.2-4.56,6.58c0,3.43,0.47,5.46,1.41,6.17c0.75,0.49,3.11,0.73,7.09,0.73c8.33,0,12.51-2.96,12.51-8.87
		C702.56,374.17,699.73,371.68,694.12,371.68z M570.73,376.29c-2.21-2.29-5.08-3.43-8.61-3.43c-3.51,0-6.38,1.14-8.55,3.38
		c-2.18,2.27-3.28,5.16-3.28,8.7c0,3.32,1.16,6.17,3.45,8.55c2.31,2.38,5.1,3.58,8.38,3.58c3.49,0,6.36-1.14,8.57-3.43
		c2.23-2.27,3.32-5.16,3.32-8.7C574.01,381.45,572.92,378.56,570.73,376.29z M963.68,248.79H486.76
		c-76.73,0-138.92,62.21-138.92,138.92v113.77h754.75V387.71C1102.6,311,1040.39,248.79,963.68,248.79z M483.79,407.54
		c-5.38,5.7-14.82,8.55-28.32,8.55c-1.03,0-2.51-0.02-4.43-0.04h-4.37c-15.17,0-24.16-0.32-27.03-0.94c-1.2-0.24-1.8-0.88-1.8-1.91
		c0-4.39,0.26-11.03,0.77-19.94c0.51-8.91,0.77-15.59,0.77-20.03c0-4.76-0.24-13.71-0.73-26.84c-0.13-3.36-0.36-8.42-0.69-15.14
		l-0.06-0.88c-0.04-0.77,0.6-1.24,1.95-1.41c1.33-0.15,6.08-0.24,14.25-0.24c13.11,0,20.76,0.04,22.98,0.11
		c10.09,0.39,17.54,2.01,22.34,4.93c6.36,3.92,9.55,10.5,9.55,19.77c0,2.42-0.75,4.99-2.23,7.71c-1.05,1.93-2.46,3.86-4.18,5.78
		c-1.52,1.69-2.27,2.46-2.27,2.33c0,0.3,0.51,0.75,1.59,1.37c2.87,1.63,5.14,4.24,6.79,7.82c1.48,3.19,2.21,6.6,2.21,10.22
		C490.88,396.32,488.52,402.57,483.79,407.54z M522.28,331.24c-1.07,17.74-1.59,33.42-1.59,47.04c0,11.2,0.02,19.81,0.11,25.81
		c0,0.94,0.06,2.57,0.19,4.86c0.13,2.1,0.19,3.71,0.19,4.86c0,0.86-0.51,1.37-1.54,1.54c-1.86,0.32-5.18,0.49-9.98,0.49
		c-4.93,0-8.08-0.17-9.43-0.49c-0.9-0.21-1.41-0.77-1.54-1.67v-2.63c0-3.66,0.04-9.13,0.13-16.43c0.09-7.28,0.13-12.72,0.13-16.34
		c0-15.29,0.02-23.22,0.06-23.76c0-0.02,0-0.02,0-0.02c-0.13-9-0.64-16.75-1.54-23.26c-0.09-0.47-0.13-0.81-0.13-1.05
		c0-0.9,0.54-1.37,1.61-1.37h21.98c1.03,0,1.5,0.45,1.41,1.31L522.28,331.24z M595.82,360.97c-1.31,7.43-1.97,15.29-1.97,23.58
		c0,3.17,0.19,7.86,0.56,14.12c0.36,6.23,0.56,10.92,0.56,14.03c0,1.65-0.73,2.53-2.16,2.66c-5.08,0.36-10.92,0.56-17.48,0.56
		c-0.79,0-1.31-1.18-1.59-3.56c-0.26-2.36-0.58-3.56-0.94-3.6c-0.34,0.17-0.77,0.51-1.31,1.05c-4.58,4.65-9.51,6.96-14.78,6.96
		c-7.99,0-14.63-3.17-19.88-9.49c-4.97-5.91-7.45-12.96-7.45-21.19c0-9.49,2.57-17.12,7.69-22.9c5.33-6,12.66-9,21.94-9
		c6.45,0,11.52,2.25,15.27,6.77c0.15,0.21,0.3,0.32,0.43,0.32c0.36,0,0.79-1.01,1.26-3c0.47-1.99,1.03-2.98,1.69-2.98
		c1.52,0,4.41,0.43,8.68,1.29c4.07,0.81,6.98,1.52,8.76,2.1c0.6,0.24,0.92,0.58,0.92,0.99
		C596.01,359.86,595.95,360.29,595.82,360.97z M628.76,393.83c2.4,2.16,5.48,3.23,9.3,3.23c1.82,0,3.86-0.47,6.11-1.39
		c2.14-0.88,3.21-1.33,3.21-1.37c0.69,0,1.59,2.59,2.7,7.82c0.94,4.76,1.41,7.93,1.41,9.49c0,1.54-2.55,2.89-7.63,3.98
		c-3.94,0.88-7.13,1.31-9.55,1.31c-9.04,0-16.47-3.04-22.36-9.13c-5.87-6.06-8.8-13.65-8.8-22.73c0-8.98,2.96-16.56,8.85-22.68
		c5.89-6.15,13.32-9.21,22.32-9.21c6.13,0,11.5,1.31,16.13,3.94c1.07,0.58,1.61,1.14,1.61,1.67s-0.62,2.96-1.84,7.26
		c-1.16,4.16-1.91,6.64-2.25,7.52c-0.34,0.86-0.71,1.29-1.07,1.29c-0.04,0-1.29-0.32-3.73-0.99c-2.44-0.66-4.43-0.99-5.96-0.99
		c-3.64,0-6.55,1.09-8.74,3.3c-2.18,2.18-3.26,5.12-3.26,8.78C625.21,388.71,626.39,391.67,628.76,393.83z M718.13,405.85
		c3.81,5.1,5.72,7.78,5.72,8.03c0,1.11-5.44,1.67-16.3,1.67c-4.2,0-6.62-0.54-7.28-1.61c-1.63-2.76-4.2-6.7-7.69-11.82
		c-0.21-0.26-3.9-0.54-11.1-0.86c0,1.26,0.02,3.3,0.06,6.08c0.04,2.81,0.06,4.86,0.06,6.23c0,1.22-0.6,1.91-1.78,2.01
		c-0.75,0.09-3.98,0.13-9.73,0.13c-4.99,0-7.88-0.09-8.7-0.24c-1.11-0.21-1.65-1.05-1.65-2.53v-37.7c0-5.03-0.19-12.6-0.56-22.66
		c-0.39-10.05-0.56-17.59-0.56-22.6c0-0.99,0.56-1.5,1.65-1.54c2.18,0,5.44-0.04,9.81-0.13c1.14-0.06,3.13-0.32,5.95-0.73
		c2.51-0.36,4.48-0.56,5.91-0.56c0.66,0,0.99,0.6,0.99,1.78c0,1.56-0.11,3.68-0.36,6.36c-0.28,3.11-0.45,5.25-0.49,6.4
		c-0.36,8.83-0.56,15.66-0.56,20.5c0,1.16,0.15,1.74,0.43,1.78c0.39-0.24,0.88-0.69,1.48-1.35c5.36-5.55,11.82-8.31,19.47-8.31
		c7.18,0,12.9,1.65,17.12,4.93c4.65,3.66,6.96,9,6.96,16c0,9.08-4.46,15.98-13.37,20.71c-0.81,0.41-1.22,0.84-1.22,1.29
		C712.41,397.84,714.32,400.73,718.13,405.85z M769.5,367.21c-1.16-0.3-2.29-0.45-3.45-0.45c-2.42,0-4.46,0.54-6.1,1.61
		c-1.97,1.24-2.96,2.98-2.96,5.25c0,1.44,1.05,3.26,3.15,5.48c3.17,3.32,5.12,5.55,5.85,6.7c2.1,3.13,3.15,6.47,3.15,10.05
		c0,2.08-0.43,4.31-1.24,6.64c-0.94,2.59-2.14,4.48-3.58,5.68c-3.02,2.61-6.58,4.84-10.65,6.64c-4.39,1.89-8.44,2.83-12.12,2.83
		c-0.84,0-2.68-2.23-5.53-6.68c-2.85-4.46-4.28-7.18-4.28-8.16c0-0.36,0.24-0.58,0.69-0.66c2.87-0.54,5.76-1.07,8.7-1.61
		c3.6-1.16,5.4-3.04,5.4-5.66c0-1.82-1.03-3.92-3.13-6.3c-3.75-4.13-5.7-6.34-5.85-6.58c-2.1-2.96-3.15-6.08-3.15-9.36
		c0-6.17,3.13-11.4,9.36-15.72c5.59-3.81,11.57-5.72,17.93-5.72c0.64,0,2.27,2.21,4.86,6.62c2.59,4.41,3.88,6.98,3.88,7.73
		C770.42,365.94,770.12,366.5,769.5,367.21z M877.53,401.42c0.11,5.18,0.17,9.08,0.17,11.67c0,1.44-0.6,2.23-1.84,2.4
		c-1.22,0.15-4.26,0.24-9.1,0.24c-5.01,0-8.14-0.13-9.36-0.36c-1.24-0.26-1.86-1.26-1.86-3.02c0-1.89,0.06-4.71,0.19-8.46
		c0.13-3.77,0.19-6.58,0.19-8.48c0-7.18-0.09-12.3-0.26-15.32c-0.24-4.91-2.57-7.35-6.96-7.35c-1.93,0-3.83,0.81-5.76,2.44
		c-1.91,1.63-2.96,3.43-3.17,5.4c-0.15,1.71-0.24,6.77-0.24,15.14c0,1.93,0.06,4.84,0.17,8.76c0.13,3.94,0.19,6.88,0.19,8.85
		c0,1.35-0.6,2.04-1.78,2.04h-18.66c-1.16,0-1.74-0.84-1.74-2.53c0-1.93,0.06-4.82,0.19-8.68c0.11-3.86,0.17-6.79,0.17-8.76
		c0-1.5-0.04-3.81-0.13-6.9c-0.06-3.06-0.11-5.4-0.11-6.94c0-5.89-2.25-8.83-6.73-8.83c-1.8,0-3.75,0.71-5.85,2.1
		c-2.29,1.52-3.45,3.13-3.45,4.8c0,3.75,0.02,9.34,0.06,16.75c0.04,7.43,0.06,13,0.06,16.71c0,1.01-0.13,1.65-0.36,1.91
		c-0.26,0.24-0.88,0.41-1.91,0.49c-1.86,0.15-4.78,0.24-8.76,0.24c-2.57,0-5.51-0.13-8.8-0.36c-0.99-0.09-1.56-0.24-1.76-0.43
		c-0.17-0.21-0.28-0.84-0.28-1.84c0-3.3,0.02-8.2,0.06-14.76s0.06-11.46,0.06-14.76c0-6.73-0.49-14.31-1.48-22.73
		c-0.09-0.49-0.13-0.86-0.13-1.09c0-0.71,0.3-1.18,0.88-1.41c0.9-0.39,2.59-0.69,5.1-0.94c3.08-0.28,4.91-0.47,5.48-0.54
		c0.41-0.09,2.03-0.51,4.86-1.31c2.01-0.58,3.64-0.86,4.86-0.86c0.79,0,1.2,1.44,1.24,4.28c0.04,2.85,0.19,4.28,0.49,4.28
		c0.41-0.17,0.88-0.45,1.41-0.88c3.71-2.87,6.62-4.84,8.74-5.91c3.17-1.52,6.6-2.27,10.28-2.27c3.79,0,7.15,0.84,10.11,2.53
		c3.32,1.88,5.48,4.54,6.47,7.95c2.16-2.96,5.16-5.44,9-7.45c3.81-2.01,7.52-3.02,11.14-3.02c5.42,0,9.83,1.24,13.24,3.75
		c3.86,2.85,5.78,6.88,5.78,12.15c0,2.16-0.06,5.44-0.17,9.81c-0.13,4.37-0.19,7.65-0.19,9.83
		C877.33,392.33,877.4,396.21,877.53,401.42z M913.56,359.26c-0.9,7.99-1.37,17.29-1.37,27.83c0,3,0.06,7.48,0.19,13.41
		c0.13,5.93,0.19,10.37,0.19,13.32c0,0.86-0.51,1.37-1.54,1.54c-1.39,0.24-4.54,0.36-9.43,0.36c-4.93,0-8.1-0.13-9.49-0.36
		c-0.9-0.17-1.46-0.43-1.65-0.79c-0.09-0.17-0.13-0.79-0.13-1.86c0-2.83,0.06-7.09,0.17-12.77c0.13-5.7,0.19-9.98,0.19-12.85
		c0-11.65-0.45-20.93-1.35-27.83c-0.09-0.66-0.13-1.09-0.13-1.31c0-0.81,0.56-1.22,1.67-1.22c1.14,0,2.89,0.13,5.25,0.36
		c2.38,0.26,4.16,0.36,5.33,0.36c1.2,0,2.98-0.09,5.36-0.3c2.38-0.21,4.18-0.3,5.36-0.3c1.01,0,1.48,0.41,1.48,1.22
		C913.66,358.25,913.62,358.64,913.56,359.26z M901.73,352.04c-3.45,0-6.32-0.9-8.57-2.7c-2.46-1.97-3.68-4.65-3.68-8.01
		c0-3.19,1.26-5.83,3.81-7.88c2.33-1.88,5.14-2.83,8.44-2.83c3.19,0,5.98,0.96,8.31,2.89c2.51,2.06,3.75,4.67,3.75,7.82
		C913.79,348.48,909.77,352.04,901.73,352.04z M964.82,402.92c-0.3,2.51-0.45,4.35-0.45,5.51c0,1.18-0.13,1.93-0.39,2.25
		c-0.24,0.34-0.92,0.81-2.01,1.44c-5.31,2.91-11.18,4.37-17.63,4.37c-11.87,0-17.8-4.54-17.8-13.62c0-2.7,0.11-6.77,0.32-12.21
		c0.19-5.44,0.3-9.53,0.3-12.23c0-1.8-1.05-2.72-3.15-2.72h-0.79c-0.36,0.04-0.64,0.06-0.79,0.06c-1.56,0-2.36-0.56-2.36-1.65
		c0-0.66,0.06-1.67,0.17-3.02c0.09-1.35,0.15-2.36,0.15-3.02c0-0.86-0.06-2.18-0.15-3.94c-0.11-1.78-0.17-3.08-0.17-3.94
		c0-0.81,1.33-1.29,3.94-1.35c1.5-0.04,2.29-0.45,2.42-1.24c0.24-1.56,0.32-4.03,0.24-7.39c-0.17-4.78-0.24-7.33-0.24-7.58
		c0-4.76,0.45-7.13,1.35-7.13c1.11,0,2.68,0.24,4.73,0.73c2.33,0.54,3.96,0.86,4.86,0.94c2.1,0.28,5.27,0.66,9.49,1.16
		c1.03,0.09,1.54,0.43,1.54,1.05c0,1.65-0.13,4.13-0.41,7.45c-0.26,3.32-0.39,5.83-0.39,7.52c0,2.01,0.58,3.02,1.78,3.02
		c1.44,0,3.62-0.06,6.53-0.19c2.91-0.13,5.1-0.19,6.6-0.19c0.9,0,1.35,0.32,1.35,0.92c0,0.96-0.11,2.38-0.32,4.26
		c-0.19,1.89-0.3,3.3-0.3,4.24c0,0.99,0.02,2.42,0.06,4.33c0.04,1.89,0.06,3.32,0.06,4.31c0,0.86-0.6,1.29-1.8,1.29
		c-0.81,0-2.18-0.02-4.11-0.09c-1.93-0.06-3.32-0.11-4.13-0.11h-4.63c-0.6,0-0.92,0.92-0.92,2.72v4.37
		c0.04,1.97,0.06,3.43,0.06,4.37c0,3.45,0.39,5.83,1.18,7.15c1.11,1.76,3.28,2.63,6.53,2.63c1.01,0,2.48-0.24,4.39-0.71
		c1.91-0.47,3.26-0.71,4.03-0.71c0.88,0,1.31,0.45,1.31,1.37C965.29,398.55,965.14,400.41,964.82,402.92z M1033.09,413.2
		c0,1.44-0.58,2.25-1.71,2.4c-1.33,0.17-4.33,0.26-9,0.26c-4.52,0-7.67-0.17-9.43-0.49c-1.35-0.26-2.04-1.14-2.04-2.66
		c0-3.53,0.06-8.85,0.19-15.94c0.13-7.11,0.17-12.42,0.17-15.96c0-4.8-2.44-7.2-7.33-7.2c-1.63,0-3.58,0.64-5.78,1.97
		c-2.42,1.44-3.64,2.93-3.64,4.5v15.21c0,1.97,0.04,4.93,0.13,8.89c0.09,3.96,0.13,6.94,0.13,8.91c0,1.5-0.64,2.36-1.91,2.51
		c-1.29,0.17-4.84,0.26-10.73,0.26c-3.36,0-5.78-0.17-7.26-0.49c-1.48-0.32-2.21-1.05-2.21-2.16c0-3.23,0.02-8.12,0.06-14.63
		c0.04-6.49,0.06-11.37,0.06-14.61c0-13.43-0.15-24.55-0.45-33.33c-0.11-3.08-0.21-6.15-0.3-9.23c-0.21-3.58-0.58-6.64-1.11-9.17
		c-0.11-0.54-0.17-0.94-0.17-1.18c0-0.62,0.3-1.03,0.92-1.24c1.26-0.36,3.15-0.58,5.59-0.66c3.3-0.13,5.21-0.24,5.74-0.32
		l11.14-1.29c0.66,0,0.99,0.43,0.99,1.29c0,1.33-0.09,3.11-0.24,5.38c-0.17,2.61-0.26,4.41-0.26,5.36
		c-0.24,9.28-0.36,16.6-0.36,21.98c0,0.81,0.19,1.24,0.62,1.24c0.09,0,1.11-0.73,3.13-2.16c2.38-1.69,4.67-3.02,6.83-4.01
		c3.26-1.44,6.38-2.16,9.43-2.16c5.27,0,9.66,1.39,13.2,4.13c3.81,2.96,5.72,7,5.72,12.15L1033.09,413.2z M694.12,371.68
		c-2.51,0-5.18,0.96-8.01,2.85c-3.04,2.01-4.56,4.2-4.56,6.58c0,3.43,0.47,5.46,1.41,6.17c0.75,0.49,3.11,0.73,7.09,0.73
		c8.33,0,12.51-2.96,12.51-8.87C702.56,374.17,699.73,371.68,694.12,371.68z M562.12,372.86c-3.51,0-6.38,1.14-8.55,3.38
		c-2.18,2.27-3.28,5.16-3.28,8.7c0,3.32,1.16,6.17,3.45,8.55c2.31,2.38,5.1,3.58,8.38,3.58c3.49,0,6.36-1.14,8.57-3.43
		c2.23-2.27,3.32-5.16,3.32-8.7c0-3.49-1.09-6.38-3.28-8.65C568.53,374,565.66,372.86,562.12,372.86z M461.62,381
		c-1.97-0.84-5.16-1.24-9.6-1.24c-5.29,0-8.18,0.19-8.63,0.58c-0.45,0.41-0.66,2.91-0.66,7.56c0,4.84,0.26,7.52,0.79,8.03
		c0.54,0.51,3.49,0.77,8.87,0.77c4.43,0,7.56-0.34,9.36-1.05c3-1.2,4.5-3.58,4.5-7.15C466.24,384.81,464.7,382.31,461.62,381z
		 M451.16,361.66c8.83,0,13.24-2.53,13.24-7.58c0-3.53-1.78-5.87-5.31-7.03c-1.97-0.6-5.21-0.92-9.73-0.92
		c-4.43,0-6.64,0.34-6.64,0.99c0,0.79-0.09,1.97-0.21,3.56c-0.15,1.56-0.21,2.76-0.21,3.53c0,4.11,0.34,6.4,1.03,6.9
		C443.79,361.47,446.39,361.66,451.16,361.66z M570.73,376.29c-2.21-2.29-5.08-3.43-8.61-3.43c-3.51,0-6.38,1.14-8.55,3.38
		c-2.18,2.27-3.28,5.16-3.28,8.7c0,3.32,1.16,6.17,3.45,8.55c2.31,2.38,5.1,3.58,8.38,3.58c3.49,0,6.36-1.14,8.57-3.43
		c2.23-2.27,3.32-5.16,3.32-8.7C574.01,381.45,572.92,378.56,570.73,376.29z M694.12,371.68c-2.51,0-5.18,0.96-8.01,2.85
		c-3.04,2.01-4.56,4.2-4.56,6.58c0,3.43,0.47,5.46,1.41,6.17c0.75,0.49,3.11,0.73,7.09,0.73c8.33,0,12.51-2.96,12.51-8.87
		C702.56,374.17,699.73,371.68,694.12,371.68z M694.12,371.68c-2.51,0-5.18,0.96-8.01,2.85c-3.04,2.01-4.56,4.2-4.56,6.58
		c0,3.43,0.47,5.46,1.41,6.17c0.75,0.49,3.11,0.73,7.09,0.73c8.33,0,12.51-2.96,12.51-8.87
		C702.56,374.17,699.73,371.68,694.12,371.68z M570.73,376.29c-2.21-2.29-5.08-3.43-8.61-3.43c-3.51,0-6.38,1.14-8.55,3.38
		c-2.18,2.27-3.28,5.16-3.28,8.7c0,3.32,1.16,6.17,3.45,8.55c2.31,2.38,5.1,3.58,8.38,3.58c3.49,0,6.36-1.14,8.57-3.43
		c2.23-2.27,3.32-5.16,3.32-8.7C574.01,381.45,572.92,378.56,570.73,376.29z M694.12,371.68c-2.51,0-5.18,0.96-8.01,2.85
		c-3.04,2.01-4.56,4.2-4.56,6.58c0,3.43,0.47,5.46,1.41,6.17c0.75,0.49,3.11,0.73,7.09,0.73c8.33,0,12.51-2.96,12.51-8.87
		C702.56,374.17,699.73,371.68,694.12,371.68z M694.12,371.68c-2.51,0-5.18,0.96-8.01,2.85c-3.04,2.01-4.56,4.2-4.56,6.58
		c0,3.43,0.47,5.46,1.41,6.17c0.75,0.49,3.11,0.73,7.09,0.73c8.33,0,12.51-2.96,12.51-8.87
		C702.56,374.17,699.73,371.68,694.12,371.68z"/>
</g>
</svg>
