<?xml version="1.0" encoding="utf-8"?>
<!-- Generator: Adobe Illustrator 27.7.0, SVG Export Plug-In . SVG Version: 6.00 Build 0)  -->
<svg version="1.1" id="Layer_1" xmlns="http://www.w3.org/2000/svg" xmlns:xlink="http://www.w3.org/1999/xlink" x="0px" y="0px"
	 viewBox="0 0 1417.32 1417.32" style="enable-background:new 0 0 1417.32 1417.32;" xml:space="preserve">
<style type="text/css">
	.st0{fill:#646765;}
	.st1{fill:#FACC58;}
	.st2{fill:#3CA0BD;}
	.st3{fill:#527CBE;}
</style>
<g>
	<g>
		<path class="st0" d="M848.1,701.84c0.02-2.71-1.18-3.73-3.39-4.98c-10.2-5.63-21.38-8.08-32.64-9.8
			c-65.38-10.04-130.94-9.82-196.5-2.01c-15.77,1.88-31.56,4.32-45.92,11.99c-2.1,1.11-3.08,2.13-3.08,4.57
			c0.09,40.99-0.2,81.98,0.25,122.98c0.18,17.24,11.97,30.09,28.5,32.55c3.89,0.57,5.66,2.13,7.33,5.5
			c8.44,17.13,22.26,26.74,41.33,28.69c1.7,0.18,3.37,0.38,5.07,0.57c-2.85,1.72-5.63,2.69-8.51,3.37
			c-5.84,1.36-7.87,4.71-7.83,10.86c0.32,30.13,0.09,60.29,0.18,90.42c0.05,18.39,10.43,32.44,27.96,37.49
			c3.89,1.13,4.89,2.94,4.82,6.7c-0.2,12.92-0.2,25.84-0.02,38.75c0.23,15.75,9.43,28.91,24.07,33.82c4.14,1.4,4.91,3.53,4.89,7.33
			c-0.16,14.23,0.41,28.46-0.2,42.67c-0.84,19.91,8.33,37.3,12.96,56.06c4.21-16.11,11.92-31.22,12.62-47.94
			c0.7-17.19,0.23-34.43,0.11-51.67c-0.02-3.17,0.75-4.91,4.09-6.15c16.49-6.11,24.82-18.37,24.91-36.11
			c0.05-12.17,0.14-24.34-0.07-36.49c-0.07-3.94,0.9-5.88,5.07-7.06c16.94-4.77,27.64-18.98,27.69-36.56
			c0.11-31.06-0.02-62.14,0.14-93.21c0.02-4.55-1.79-7.01-5.88-8.26c-3.46-1.06-6.92-2.15-11.27-3.51c1.45-0.54,1.88-0.86,2.35-0.88
			c21.45-1.02,36.85-11.08,45.72-30.72c1.11-2.47,2.81-3.03,5.2-3.42c17.92-2.85,29.68-15.25,29.84-33.14
			C848.3,783.47,848.01,742.66,848.1,701.84z M648.27,1007.38c-1.81-4-2.24-8.26-2.22-12.62c0.02-24.68,0.18-49.38-0.14-74.07
			c-0.07-5.68,1.47-8.05,7.19-7.1c0.9,0.16,1.88,0.14,2.81,0c4.89-0.72,6.45,1.06,6.15,6.2c-1.38,24.09-2.4,48.19-3.44,72.3
			c-0.7,15.95-0.09,17.71,9.39,30.07C658.39,1020.28,652.01,1015.62,648.27,1007.38z M636.83,876.45
			c-12.56-3.82-20.47-12.69-24.39-25.09c-1.31-4.09-2.78-7.01-7.8-8.1c-6.97-1.52-11.67-8.1-11.7-15.43
			c-0.14-36.13,0-72.23-0.11-108.36c-0.02-3.85,1.47-4.48,4.73-3.55c1.79,0.52,3.66,0.75,5.5,1.09
			c13.48,2.38,13.48,2.38,13.48,16.33c0,26.2,0.11,52.39-0.11,78.59c-0.02,4.89,1.27,7.01,6.29,6.22c1.45-0.23,2.99,0.07,4.48-0.07
			c3.39-0.32,4.73,1.11,4.55,4.52c-0.32,5.86,0.7,11.58,2.17,17.22c4.91,19,16.51,31.47,35.83,36.33c1.18,0.29,2.67-0.02,4.14,2.06
			C661.1,877.73,648.79,880.07,636.83,876.45z M686.78,884.23c0.23-3.55-0.16-7.22,5.02-6.18c3.14,0.63,8.23-2.92,8.66,4.25
			c0.34,5.72-2.01,7.35-6.67,6.42C689.88,889.09,686.44,889.7,686.78,884.23z M681.03,1088.78c-1.45-2.85-2.17-5.99-2.17-9.21
			c-0.05-17.19,0.05-34.41-0.11-51.6c-0.02-3.46,1.27-4.75,4.59-4.43c1.49,0.14,3.01,0.16,4.5-0.02c3.94-0.48,5.2,1.18,5.16,5.07
			c-0.16,16.08,0.02,32.17-0.09,48.23c-0.07,8.66-0.02,17.17,6.92,25.25C690.17,1100.68,684.63,1096.04,681.03,1088.78z
			 M706.14,1196.78c0,1.38,0.54,2.96-1.36,4.61c-2.13-10.16-5.57-19.7-5.81-29.75c-0.36-16.06-0.11-32.15-0.09-48.23
			c0.02-2.67-0.77-5.79,3.91-5.63c4.41,0.14,3.35,3.19,3.35,5.57C706.21,1147.83,706.19,1172.3,706.14,1196.78z"/>
		<path class="st1" d="M738.7,1231.68c17.23-6.13,34.46-12.26,51.68-18.41c2.2-0.78,4.25-0.71,5.08,1.75
			c0.94,2.76-0.78,4.19-3.28,4.79c-17.76,4.32-35.52,8.63-53.28,12.94C738.84,1232.4,738.77,1232.04,738.7,1231.68z"/>
		<path class="st1" d="M686.31,1226.98c-14.6-10.03-29.21-20.06-43.8-30.1c-1.95-1.34-2.87-3.26-1.42-5.28
			c1.77-2.47,4.02-1.42,5.85,0.11c7.31,6.14,14.56,12.34,21.81,18.55c6.1,5.22,12.18,10.47,18.27,15.71
			C686.79,1226.31,686.55,1226.65,686.31,1226.98z"/>
		<path class="st1" d="M727.6,1226.02c9.77-8.36,19.54-16.72,29.31-25.08c2.99-2.56,5.92-5.19,9-7.62c2.2-1.74,4.72-5.29,7.5-1.87
			c2.71,3.33-0.85,5.23-3.3,6.91c-8.64,5.94-17.31,11.83-25.96,17.75c-5.24,3.59-10.46,7.21-15.68,10.82
			C728.18,1226.63,727.89,1226.33,727.6,1226.02z"/>
		<path class="st1" d="M673.16,1231.52c-4.54,0.24-8.48-1.54-12.52-2.45c-12-2.69-23.94-5.7-35.87-8.69
			c-2.73-0.69-6.84-0.89-5.45-5.24c1.24-3.9,4.53-2.07,7.1-1.16c14.4,5.13,28.79,10.29,43.18,15.46
			C670.79,1229.86,672.17,1229.96,673.16,1231.52z"/>
		<path class="st1" d="M672.73,1181.91c-6.56-6.16-13.29-12.46-19.99-18.79c-1.18-1.12-1.93-2.63-0.43-3.84
			c1.56-1.26,2.75,0.12,3.67,1.3C661.62,1167.71,667.22,1174.87,672.73,1181.91z"/>
		<path class="st1" d="M743.99,1179.33c3.59-4.56,9.36-11.92,15.18-19.25c0.85-1.06,2.07-1.85,3.34-0.74
			c1.28,1.12,0.7,2.49-0.3,3.41C755.32,1169.09,748.37,1175.36,743.99,1179.33z"/>
		<path class="st1" d="M773.75,1209.36c7.81-4.26,15.61-8.55,23.45-12.77c1.3-0.7,2.91-1.46,3.8,0.49c0.67,1.48-0.35,2.51-1.65,3.05
			c-8.34,3.48-16.71,6.92-25.06,10.37C774.1,1210.12,773.92,1209.74,773.75,1209.36z"/>
		<path class="st1" d="M640.07,1210.42c-8.02-3.32-16.05-6.61-24.04-10c-1.52-0.65-3.4-1.64-2.16-3.69c0.99-1.64,2.68-0.7,3.98,0
			c7.64,4.14,15.26,8.33,22.89,12.5C640.51,1209.63,640.29,1210.02,640.07,1210.42z"/>
	</g>
	<path class="st2" d="M1412.59,748.25c0.67-15.05,2.1-30.09,2.08-45.13c-0.02-16.32-1.85-32.65-1.96-48.97
		c-0.21-29.69-5.54-58.72-10.96-87.68c-7.56-40.22-19.55-79.22-34.59-117.32c-15.54-39.32-34.05-77.06-56.14-113.13
		c-17.02-27.78-36.36-53.82-56.62-79.25c-28.11-35.3-60.24-66.66-95.14-94.96c-23.25-18.82-47.97-35.95-72.95-52.47
		c-43.9-29.05-91-51.84-140.78-69.06c-39.45-13.65-79.58-24.8-120.86-31.11c-26.63-4.06-53.51-7.88-80.39-8.75
		c-32.22-1.06-64.62,0.06-96.79,2.31c-26.01,1.83-52.01,5.61-77.62,10.54c-39.09,7.5-77.2,18.77-114.48,33.11
		c-51.93,19.96-101.23,44.95-146.86,76.7c-46.61,32.42-89.35,69.33-127.01,112.15c-24.71,28.11-47.61,57.45-67.93,88.81
		c-22.98,35.49-42.59,72.79-58.76,111.84c-19.13,46.18-34.07,93.77-42.07,143.13C7.43,611.98,3,645.28,1.16,678.6
		c-1.79,31.94-2.04,64.16,3.15,96.06c4.85,29.69,8.46,59.6,14.27,89.08c7.81,39.55,20.15,78.04,35.99,114.98
		c13.09,30.55,29.13,59.95,45.41,89c26.05,46.51,58.72,88.41,95.6,126.75c19.59,20.36,40.78,39.32,62.32,57.64
		c46.24,39.38,97.48,71.1,152.55,96.71c47.3,22,96.19,39.36,147.4,49.41c28.26,5.54,56.84,10.31,85.48,13.02
		c22.03,2.08,44.43,0.4,66.68,0.4v0.17c17.19,0,34.47,1.12,51.55-0.27c26.44-2.11,53.05-4.33,79-9.44
		c29.71-5.86,59.09-13.94,88.04-22.88c38.69-11.92,76.35-26.92,111.48-47.36c25-14.54,50.11-29.03,74.06-45.18
		c43.49-29.28,82.73-63.83,117.34-103.21c19.9-22.63,39.19-46.01,56.51-70.62c16.38-23.25,30.28-48.3,44.51-73.01
		c16.57-28.76,30.17-59.05,40.84-90.44c12.98-38.24,25.61-76.72,31.11-116.96c3.13-22.98,5.52-46.05,8-69.1
		C1412.99,758.36,1412.38,753.26,1412.59,748.25z M1170.33,1171.05c-117.44,117.15-260.62,181.6-426.5,189.79
		c-189.72,9.36-355.38-51.89-491.64-184.47C123.44,1051.11,56.32,896.83,53.86,716.64c-2.56-186,63.82-345.61,195.46-476.12
		C376.94,113.98,533.27,51.24,712.66,52.34c179.22,1.1,334.11,66.28,460.53,193.66c126.32,127.26,188.35,282.16,189.96,461.61
		C1361.56,888.28,1298,1043.69,1170.33,1171.05z"/>
	<path class="st3" d="M953.37,283.97H461.3c-72.14,0-130.63,58.49-130.63,130.63v146.74h753.32V414.6
		C1083.99,342.45,1025.52,283.97,953.37,283.97z M519.29,462.2c4.42,6.86,10.61,10.29,18.59,10.29c14.23,0,22.21-9.69,23.92-29.07
		l49.26,2.96c-2.31,21.53-10.27,38.03-23.86,49.53c-13.59,11.48-30.28,17.23-50.09,17.23c-23.84,0-43.09-7.88-57.76-23.67
		c-14.65-15.77-22-37.55-22-65.33c0-27.51,6.96-49.72,20.84-66.62c13.88-16.9,33.26-25.34,58.14-25.34
		c23.23,0,41.09,6.44,53.57,19.3c12.48,12.84,19.52,29.92,21.15,51.18l-50.28,2.69c0-11.75-2.25-20.23-6.77-25.46
		c-4.5-5.23-9.79-7.84-15.88-7.84c-16.98,0-25.46,17.05-25.46,51.18C512.68,442.36,514.89,455.34,519.29,462.2z M780.84,510.44
		h-43.86l-48.09-77.58c-6.17-9.94-12.38-22.03-18.67-36.24c2.85,11.31,4.25,20.92,4.25,28.8v85.02h-43.72V334.88h50.93l40.9,64.3
		c8.15,12.79,14.32,24.01,18.52,33.71c-2.75-15-4.11-30.36-4.11-46.05v-51.95h43.86V510.44z M865.54,462.2
		c4.42,6.86,10.61,10.29,18.59,10.29c14.23,0,22.21-9.69,23.92-29.07l49.26,2.96c-2.31,21.53-10.27,38.03-23.86,49.53
		c-13.59,11.48-30.28,17.23-50.09,17.23c-23.84,0-43.09-7.88-57.76-23.67c-14.65-15.77-22-37.55-22-65.33
		c0-27.51,6.94-49.72,20.84-66.62c13.88-16.9,33.26-25.34,58.14-25.34c23.23,0,41.09,6.44,53.57,19.3
		c12.48,12.84,19.52,29.92,21.15,51.18l-50.28,2.69c0-11.75-2.27-20.23-6.77-25.46c-4.5-5.23-9.79-7.84-15.88-7.84
		c-16.98,0-25.46,17.05-25.46,51.18C858.92,442.36,861.11,455.34,865.54,462.2z"/>
</g>
</svg>
