<?xml version="1.0" encoding="utf-8"?>
<!-- Generator: Adobe Illustrator 27.7.0, SVG Export Plug-In . SVG Version: 6.00 Build 0)  -->
<svg version="1.1" id="Layer_1" xmlns="http://www.w3.org/2000/svg" xmlns:xlink="http://www.w3.org/1999/xlink" x="0px" y="0px"
	 viewBox="0 0 1417.32 1417.32" style="enable-background:new 0 0 1417.32 1417.32;" xml:space="preserve">
<style type="text/css">
	.st0{fill:#646765;}
	.st1{fill:#FACC58;}
	.st2{fill:#9E9C9D;}
	.st3{fill:#323232;}
	.st4{fill:#DDDDDC;}
	.st5{fill:#B0AEAF;}
	.st6{fill:#FBFBFB;}
	.st7{fill:#716F6F;}
	.st8{fill:#3CA0BD;}
	.st9{fill:#527CBE;}
</style>
<g>
	<g>
		<path class="st0" d="M993.54,618.76c-2.11,1.01-4.5,3.26-6.28,2.85c-17.96-4.11-25.38,5.86-33.06,20.39
			c-26.09,49.35-71.95,71.73-123.27,84.63c-19.18,4.82-39.27,5.94-58.86,9.23c-3.07,0.52-5.7,3.63-8.54,5.54
			c-1.31,0.17-2.61,0.34-3.92,0.51c-2.31-0.19-4.63-0.38-8.52-0.7c9.38,20.35,18.28,39.48,27.04,58.67
			c29.79,65.24,59.3,130.62,89.48,195.68c6.04,13.02,2.98,22.06-6.16,31.97c-33.39,36.18-54.38,78.52-60.21,127.74
			c-1.51,12.78-1.67,25.71-2.45,38.57c0.78,0.75,1.56,1.5,2.34,2.25c22.77,0,45.55,0,69.18,0c0,19.96,0,38.68,0,58.3
			c-88.51,0-177.24,0-266.85,0c0-18.47,0-37.17,0-58.27c22.91,0,46.04,0,69.17,0c0.79-0.76,1.58-1.52,2.37-2.29
			c1.75-56.06-17.72-105.18-49.28-150.31c-3-4.29-6.1-8.57-9.61-12.44c-18.57-20.48-17.98-20.14-6.58-44.56
			c16.02-34.31,30.62-69.29,46.49-103.67c18.43-39.93,37.7-79.47,56.31-119.31c3.58-7.66,5.78-15.97,8.81-24.53
			c-35.32-2.11-70.21-6.18-105.05-5.8c-49.14,0.54-96.35,10.84-134.76,44.44c-10.86,9.5-18.68,22.47-29.69,36.06
			c12.24,0.62,20.32,1.04,28.41,1.45c0.71,0.73,1.42,1.46,2.13,2.19c0.08,33.88,0.16,67.75,0.25,101.63
			c-0.91,0.47-1.81,0.94-2.72,1.41c-31.87,0.04-63.74,0.08-95.61,0.13c-1.23,0.02-2.46,0.03-3.7,0.05c-1.21-2.17-2.42-4.34-3.64-6.5
			c-0.05-27.49-0.11-54.98-0.16-82.47c0.07-4.63,0.15-9.25,0.22-13.88c0.52-0.92,1.04-1.84,1.56-2.77
			c14.09-0.13,28.28,0.74,42.21-0.83c6.45-0.73,14.92-4.62,18.13-9.78c29.05-46.75,71.81-74.64,124.75-81.78
			c39.69-5.36,80.64-1.46,121.03-1.57c12.62-0.04,25.25,0.29,37.87,0.44c3.04-0.23,6.07-0.46,9.11-0.69
			c49.4,2.8,97-4.96,141.82-26.14c32.24-15.24,58.52-37.29,72.7-71.43c-8.9-1.35-17.45-2.65-26-3.94
			c-0.12-23.58-0.25-47.16-0.37-70.74c11.07-1.08,22.13-2.31,33.22-3.17c5.73-0.44,11.51-0.22,17.27-0.3
			c1.14,0.01,2.28,0.02,3.41,0.03c6.72,0.3,13.44,0.6,20.16,0.9C993.65,570.2,993.6,594.48,993.54,618.76z M729.17,832.23
			c0.03-7,0.05-14,0.08-21c0-9.35,0-18.69,0-28.04c-1.33-0.26-2.65-0.53-3.98-0.79c-34.2,75.08-68.41,150.17-102.57,225.15
			c47.96,53.25,72.86,115.04,73.83,186.27c0.81,0.76,1.62,1.52,2.43,2.28c25.28-0.05,50.55-0.11,75.83-0.16
			c0.68-0.7,1.36-1.4,2.04-2.1c0.28-4.35,0.66-8.7,0.83-13.05c1.34-35.94,8.28-70.62,25.94-102.23
			c13.89-24.87,29.35-48.88,45.14-74.97c-32.63-71.26-66.78-145.84-100.93-220.42c-2.21,61.69-2.39,122.46-1.89,183.22
			c0.04,5.02,3.49,11.7,7.51,14.69c11.24,8.32,18.34,21.92,15.01,32.89c-4.95,16.29-16.3,25.17-32.26,25.22
			c-15.3,0.05-25.77-7.04-30.07-20.36c-4.62-14.31,0.24-31.37,12.88-37.59c8.5-4.18,10.09-9.24,10.04-17.75
			C728.75,919.74,729.06,875.99,729.17,832.23z"/>
		<path class="st1" d="M912.11,838.94c4.56-1.1,9.07-2.76,13.69-3.19c10.33-0.96,19.15,3.87,20.31,13.64
			c0.79,6.66-3.01,16.85-8.21,20.4c-5.11,3.49-15.78,2.98-21.85-0.07c-7.91-3.97-14.35-11.97-6.99-22.49
			c0.47-0.67,0.13-1.89,0.17-2.86C910.19,842.57,911.15,840.75,912.11,838.94z"/>
		<path class="st1" d="M550.12,604.21c-1.71-13.35,9.41-15.49,18.93-16.99c9.75-1.54,19.01,8.69,19.05,18.71
			c0.05,10.8-9.47,21.65-19.07,21.74C558.56,627.76,549.91,617.5,550.12,604.21z"/>
		<path class="st1" d="M731.49,720.72c-3.04,0.23-6.07,0.46-9.11,0.69c-10.85-8.41-21.46-17.13-32.59-25.15
			c-22.04-15.89-44.36-31.38-69.86-49.37c6.11,0.94,9.18,0.54,11.07,1.84c32.86,22.65,65.58,45.49,98.27,68.38
			C730.34,717.86,730.77,719.5,731.49,720.72z"/>
		<path class="st1" d="M872.94,821.61c-29.27-20.25-58.54-40.5-87.81-60.76c0.51-0.61,1.01-1.22,1.51-1.83
			c23.15,15.21,46.38,30.29,69.38,45.7c6.66,4.46,12.68,9.88,19,14.86C874.33,820.27,873.63,820.94,872.94,821.61z"/>
		<path class="st1" d="M905.14,836.83c-0.91,1.71-1.82,3.43-2.73,5.14c-9.82-6.79-19.65-13.57-29.47-20.36
			c0.69-0.67,1.39-1.34,2.08-2.02C885.06,825.34,895.1,831.08,905.14,836.83z"/>
		<path class="st2" d="M376.62,831.58c0.05,27.49,0.11,54.98,0.16,82.47C376.73,886.56,376.67,859.07,376.62,831.58z"/>
		<path class="st2" d="M993.54,618.76c0.05-24.28,0.11-48.56,0.16-72.84c1.03,17.03,2.51,34.06,2.89,51.1
			C996.76,604.24,994.63,611.51,993.54,618.76z"/>
		<path class="st2" d="M919.65,548.47c0.12,23.58,0.25,47.16,0.37,70.74C919.89,595.63,919.77,572.05,919.65,548.47z"/>
		<path class="st1" d="M759.62,741.91c1.31-0.17,2.61-0.34,3.92-0.51c7.73,5.79,15.46,11.58,23.19,17.36
			c-0.53,0.64-1.06,1.29-1.6,1.93C776.62,754.43,768.12,748.17,759.62,741.91z"/>
		<path class="st2" d="M378.4,814.94c-0.52,0.92-1.04,1.84-1.56,2.77C377.36,816.78,377.88,815.86,378.4,814.94z"/>
		<path class="st3" d="M482.2,817.34c-0.71-0.73-1.42-1.46-2.13-2.19C480.78,815.88,481.49,816.61,482.2,817.34z"/>
		<path class="st4" d="M801.13,1196.08c-0.78-0.75-1.56-1.5-2.34-2.25C799.57,1194.58,800.35,1195.33,801.13,1196.08z"/>
		<path class="st4" d="M675.01,1193.83c-0.79,0.76-1.58,1.52-2.37,2.29C673.43,1195.36,674.22,1194.59,675.01,1193.83z"/>
		<path class="st5" d="M973.55,545.02c-1.14-0.01-2.28-0.02-3.41-0.03C971.27,545.01,972.41,545.02,973.55,545.02z"/>
		<path class="st2" d="M479.72,920.38c0.91-0.47,1.81-0.94,2.72-1.41C481.54,919.44,480.63,919.91,479.72,920.38z"/>
		<path class="st2" d="M380.42,920.55c1.23-0.02,2.46-0.03,3.7-0.05C382.88,920.52,381.65,920.54,380.42,920.55z"/>
		<path class="st6" d="M774.8,1195.95c-25.28,0.05-50.55,0.11-75.83,0.16c-0.81-0.76-1.62-1.52-2.43-2.28
			c-0.97-71.23-25.88-133.02-73.83-186.27c34.16-74.99,68.36-150.07,102.57-225.15c1.33,0.26,2.65,0.53,3.98,0.79
			c0,9.35,0,18.69,0,28.04c-0.03,7-0.05,14-0.08,21c-0.1,43.75-0.42,87.51-0.12,131.26c0.06,8.51-1.53,13.57-10.04,17.75
			c-12.65,6.22-17.5,23.28-12.88,37.59c4.3,13.32,14.77,20.41,30.07,20.36c15.95-0.05,27.31-8.93,32.26-25.22
			c3.33-10.97-3.77-24.57-15.01-32.89c-4.03-2.98-7.47-9.66-7.51-14.69c-0.51-60.76-0.33-121.53,1.89-183.22
			c34.15,74.58,68.3,149.16,100.93,220.42c-15.79,26.09-31.24,50.1-45.14,74.97c-17.66,31.61-24.59,66.29-25.94,102.23
			c-0.16,4.35-0.54,8.7-0.83,13.05C776.16,1194.55,775.48,1195.25,774.8,1195.95z"/>
		<path class="st7" d="M729.17,832.23c0.03-7,0.05-14,0.08-21C729.22,818.24,729.19,825.24,729.17,832.23z"/>
		<path class="st4" d="M774.8,1195.95c0.68-0.7,1.36-1.4,2.04-2.1C776.16,1194.55,775.48,1195.25,774.8,1195.95z"/>
		<path class="st4" d="M696.54,1193.84c0.81,0.76,1.62,1.52,2.43,2.28C698.16,1195.35,697.35,1194.59,696.54,1193.84z"/>
	</g>
	<path class="st8" d="M1405.44,744.46c0.67-14.98,2.09-29.94,2.07-44.9c-0.02-16.24-1.84-32.48-1.95-48.72
		c-0.21-29.54-5.51-58.42-10.9-87.23c-7.52-40.02-19.46-78.82-34.41-116.73c-15.46-39.12-33.88-76.67-55.86-112.56
		c-16.93-27.64-36.17-53.54-56.34-78.85c-27.97-35.12-59.93-66.32-94.65-94.48c-23.13-18.73-47.73-35.77-72.58-52.21
		c-43.67-28.91-90.54-51.57-140.07-68.71C901.48,26.47,861.56,15.38,820.49,9.1c-26.49-4.04-53.24-7.84-79.98-8.7
		c-32.06-1.05-64.3,0.06-96.3,2.3c-25.88,1.82-51.75,5.59-77.23,10.48c-38.89,7.46-76.81,18.67-113.9,32.94
		c-51.67,19.86-100.72,44.73-146.11,76.31c-46.37,32.25-88.9,68.98-126.37,111.58c-24.58,27.97-47.37,57.16-67.59,88.36
		c-22.86,35.31-42.37,72.43-58.46,111.28c-19.03,45.95-33.9,93.3-41.86,142.4c-5.3,32.83-9.7,65.96-11.54,99.11
		c-1.78,31.77-2.03,63.84,3.14,95.57c4.82,29.54,8.42,59.3,14.19,88.63c7.77,39.35,20.05,77.65,35.81,114.4
		c13.03,30.4,28.98,59.65,45.18,88.55c25.92,46.28,58.42,87.96,95.11,126.1c19.49,20.26,40.57,39.12,62,57.35
		c46.01,39.18,96.99,70.74,151.78,96.22c47.06,21.88,95.71,39.16,146.65,49.16c28.12,5.51,56.55,10.25,85.05,12.95
		c21.92,2.07,44.21,0.4,66.34,0.4v0.17c17.1,0,34.3,1.11,51.29-0.27c26.3-2.1,52.78-4.3,78.6-9.39
		c29.56-5.83,58.79-13.87,87.6-22.76c38.49-11.86,75.96-26.78,110.92-47.12c24.87-14.46,49.85-28.89,73.69-44.96
		c43.27-29.13,82.32-63.51,116.75-102.69c19.8-22.52,38.99-45.78,56.22-70.26c16.3-23.13,30.13-48.05,44.29-72.64
		c16.49-28.62,30.01-58.75,40.63-89.99c12.91-38.05,25.48-76.33,30.95-116.37c3.12-22.86,5.49-45.82,7.96-68.75
		C1405.84,754.52,1405.23,749.45,1405.44,744.46z M1164.4,1165.12c-116.85,116.56-259.31,180.68-424.34,188.83
		c-188.75,9.32-353.58-51.63-489.15-183.53C122.82,1045.79,56.04,892.29,53.59,713.01c-2.54-185.06,63.49-343.86,194.47-473.71
		C375.03,113.4,530.57,50.98,709.05,52.07c178.31,1.09,332.42,65.94,458.2,192.68c125.68,126.62,187.4,280.73,189,459.27
		C1354.67,883.78,1291.43,1038.41,1164.4,1165.12z"/>
	<path class="st9" d="M972.97,380.81c-2.66-2.83-5.81-4.24-9.47-4.24c-3.79,0-6.92,1.61-9.38,4.8c-2.29,2.94-3.43,6.38-3.43,10.37
		c0,1.61,0.84,2.42,2.53,2.42c4.46,0,11.36-0.69,20.74-2.08c1.99-0.3,2.98-0.77,2.98-1.44C976.93,386.92,975.6,383.64,972.97,380.81
		z M972.97,380.81c-2.66-2.83-5.81-4.24-9.47-4.24c-3.79,0-6.92,1.61-9.38,4.8c-2.29,2.94-3.43,6.38-3.43,10.37
		c0,1.61,0.84,2.42,2.53,2.42c4.46,0,11.36-0.69,20.74-2.08c1.99-0.3,2.98-0.77,2.98-1.44C976.93,386.92,975.6,383.64,972.97,380.81
		z M769.96,385.29c-2.91-3.21-6.58-4.84-10.95-4.84c-4.39,0-8.06,1.65-10.97,4.93c-2.91,3.28-4.37,7.11-4.37,11.51
		s1.48,8.16,4.46,11.36c2.98,3.19,6.6,4.78,10.88,4.78c4.37,0,8.03-1.63,10.95-4.86c2.91-3.26,4.37-7.07,4.37-11.46
		C774.33,392.3,772.87,388.51,769.96,385.29z M972.97,380.81c-2.66-2.83-5.81-4.24-9.47-4.24c-3.79,0-6.92,1.61-9.38,4.8
		c-2.29,2.94-3.43,6.38-3.43,10.37c0,1.61,0.84,2.42,2.53,2.42c4.46,0,11.36-0.69,20.74-2.08c1.99-0.3,2.98-0.77,2.98-1.44
		C976.93,386.92,975.6,383.64,972.97,380.81z M972.97,380.81c-2.66-2.83-5.81-4.24-9.47-4.24c-3.79,0-6.92,1.61-9.38,4.8
		c-2.29,2.94-3.43,6.38-3.43,10.37c0,1.61,0.84,2.42,2.53,2.42c4.46,0,11.36-0.69,20.74-2.08c1.99-0.3,2.98-0.77,2.98-1.44
		C976.93,386.92,975.6,383.64,972.97,380.81z M769.96,385.29c-2.91-3.21-6.58-4.84-10.95-4.84c-4.39,0-8.06,1.65-10.97,4.93
		c-2.91,3.28-4.37,7.11-4.37,11.51s1.48,8.16,4.46,11.36c2.98,3.19,6.6,4.78,10.88,4.78c4.37,0,8.03-1.63,10.95-4.86
		c2.91-3.26,4.37-7.07,4.37-11.46C774.33,392.3,772.87,388.51,769.96,385.29z M769.96,385.29c-2.91-3.21-6.58-4.84-10.95-4.84
		c-4.39,0-8.06,1.65-10.97,4.93c-2.91,3.28-4.37,7.11-4.37,11.51s1.48,8.16,4.46,11.36c2.98,3.19,6.6,4.78,10.88,4.78
		c4.37,0,8.03-1.63,10.95-4.86c2.91-3.26,4.37-7.07,4.37-11.46C774.33,392.3,772.87,388.51,769.96,385.29z M972.97,380.81
		c-2.66-2.83-5.81-4.24-9.47-4.24c-3.79,0-6.92,1.61-9.38,4.8c-2.29,2.94-3.43,6.38-3.43,10.37c0,1.61,0.84,2.42,2.53,2.42
		c4.46,0,11.36-0.69,20.74-2.08c1.99-0.3,2.98-0.77,2.98-1.44C976.93,386.92,975.6,383.64,972.97,380.81z M972.97,380.81
		c-2.66-2.83-5.81-4.24-9.47-4.24c-3.79,0-6.92,1.61-9.38,4.8c-2.29,2.94-3.43,6.38-3.43,10.37c0,1.61,0.84,2.42,2.53,2.42
		c4.46,0,11.36-0.69,20.74-2.08c1.99-0.3,2.98-0.77,2.98-1.44C976.93,386.92,975.6,383.64,972.97,380.81z M769.96,385.29
		c-2.91-3.21-6.58-4.84-10.95-4.84c-4.39,0-8.06,1.65-10.97,4.93c-2.91,3.28-4.37,7.11-4.37,11.51s1.48,8.16,4.46,11.36
		c2.98,3.19,6.6,4.78,10.88,4.78c4.37,0,8.03-1.63,10.95-4.86c2.91-3.26,4.37-7.07,4.37-11.46
		C774.33,392.3,772.87,388.51,769.96,385.29z M553.69,380.81c-2.64-2.83-5.81-4.24-9.47-4.24c-3.79,0-6.92,1.61-9.38,4.8
		c-2.27,2.94-3.43,6.38-3.43,10.37c0,1.61,0.86,2.42,2.53,2.42c4.46,0,11.38-0.69,20.74-2.08c1.99-0.3,3-0.77,3-1.44
		C557.67,386.92,556.34,383.64,553.69,380.81z M769.96,385.29c-2.91-3.21-6.58-4.84-10.95-4.84c-4.39,0-8.06,1.65-10.97,4.93
		c-2.91,3.28-4.37,7.11-4.37,11.51s1.48,8.16,4.46,11.36c2.98,3.19,6.6,4.78,10.88,4.78c4.37,0,8.03-1.63,10.95-4.86
		c2.91-3.26,4.37-7.07,4.37-11.46C774.33,392.3,772.87,388.51,769.96,385.29z M972.97,380.81c-2.66-2.83-5.81-4.24-9.47-4.24
		c-3.79,0-6.92,1.61-9.38,4.8c-2.29,2.94-3.43,6.38-3.43,10.37c0,1.61,0.84,2.42,2.53,2.42c4.46,0,11.36-0.69,20.74-2.08
		c1.99-0.3,2.98-0.77,2.98-1.44C976.93,386.92,975.6,383.64,972.97,380.81z M972.97,380.81c-2.66-2.83-5.81-4.24-9.47-4.24
		c-3.79,0-6.92,1.61-9.38,4.8c-2.29,2.94-3.43,6.38-3.43,10.37c0,1.61,0.84,2.42,2.53,2.42c4.46,0,11.36-0.69,20.74-2.08
		c1.99-0.3,2.98-0.77,2.98-1.44C976.93,386.92,975.6,383.64,972.97,380.81z M769.96,385.29c-2.91-3.21-6.58-4.84-10.95-4.84
		c-4.39,0-8.06,1.65-10.97,4.93c-2.91,3.28-4.37,7.11-4.37,11.51s1.48,8.16,4.46,11.36c2.98,3.19,6.6,4.78,10.88,4.78
		c4.37,0,8.03-1.63,10.95-4.86c2.91-3.26,4.37-7.07,4.37-11.46C774.33,392.3,772.87,388.51,769.96,385.29z M553.69,380.81
		c-2.64-2.83-5.81-4.24-9.47-4.24c-3.79,0-6.92,1.61-9.38,4.8c-2.27,2.94-3.43,6.38-3.43,10.37c0,1.61,0.86,2.42,2.53,2.42
		c4.46,0,11.38-0.69,20.74-2.08c1.99-0.3,3-0.77,3-1.44C557.67,386.92,556.34,383.64,553.69,380.81z M1023.68,277.67H401.16
		c-73.73,0-133.48,59.76-133.48,133.48v92.99h889.49v-92.99C1157.17,337.43,1097.41,277.67,1023.68,277.67z M476.21,427.18
		c-10.05,11.61-24.15,17.72-42.32,18.32c-3.49,0.11-13.07,0.17-28.77,0.17c-2.94,0-7.37-0.09-13.31-0.26
		c-5.91-0.19-10.35-0.28-13.31-0.28c-1.74,0-2.61-0.69-2.61-2.08c0-6.6,0.26-16.54,0.77-29.8c0.51-13.26,0.77-23.2,0.77-29.82
		c0-6.9-0.26-17.27-0.77-31.07c-0.51-13.8-0.77-24.13-0.77-30.98c0-1.26,0.88-2.01,2.61-2.27c4.26-0.47,11.27-0.71,21.02-0.71
		c18.53,0,30.51,0.26,36,0.81c14.25,1.44,25.41,5.04,33.47,10.82c7.58,5.42,13.56,12.98,17.95,22.73c4.2,9.19,6.3,18.66,6.3,28.41
		C493.24,398.85,487.57,414.2,476.21,427.18z M583.36,406.53c-0.64,0.13-6.88,0.79-18.66,1.99c-7.09,0.77-17.68,1.71-31.75,2.79
		c0.84,3.92,3.39,6.9,7.67,8.93c3.47,1.69,7.46,2.53,11.91,2.53c5.34,0,10.71-1.44,16.13-4.33c2.29-1.46,4.56-2.89,6.86-4.33
		c1.26,0.6,3.39,3.66,6.36,9.19c2.98,5.53,4.46,9.06,4.46,10.56c0,0.41-0.45,1.11-1.35,2.08c-7.33,7.86-18.73,11.81-34.2,11.81
		c-14.31,0-25.84-4.18-34.62-12.53c-9.02-8.48-13.54-19.82-13.54-34c0-13.84,4.03-25.18,12.08-34c8.31-9.15,19.3-13.71,33.02-13.71
		c11.55,0,21.36,4.2,29.42,12.62c8.06,8.42,12.08,18.43,12.08,30.04C589.23,402.22,587.28,405.69,583.36,406.53z M650.57,374.6
		c-1.69-0.43-3.36-0.64-5.06-0.64c-3.54,0-6.51,0.79-8.93,2.36c-2.87,1.8-4.33,4.35-4.33,7.67c0,2.1,1.54,4.78,4.61,8.01
		c4.63,4.89,7.48,8.16,8.57,9.83c3.06,4.59,4.61,9.47,4.61,14.7c0,3.09-0.6,6.32-1.82,9.75c-1.37,3.79-3.11,6.56-5.23,8.29
		c-4.44,3.86-9.64,7.11-15.6,9.75c-6.43,2.76-12.36,4.16-17.78,4.16c-1.2,0-3.88-3.26-8.06-9.79c-4.18-6.51-6.28-10.5-6.28-11.96
		c0-0.54,0.32-0.86,0.99-0.99c4.22-0.79,8.46-1.56,12.73-2.36c5.29-1.67,7.95-4.44,7.95-8.29c0-2.64-1.54-5.72-4.61-9.19
		c-5.48-6.08-8.33-9.3-8.57-9.66c-3.06-4.33-4.61-8.89-4.61-13.71c0-9.02,4.56-16.69,13.71-22.99c8.18-5.59,16.93-8.4,26.25-8.4
		c0.96,0,3.34,3.24,7.13,9.71c3.79,6.45,5.68,10.24,5.68,11.31C651.92,372.76,651.47,373.57,650.57,374.6z M700.28,362.97
		c-1.33,11.72-1.99,25.3-1.99,40.77c0,4.39,0.09,10.93,0.28,19.6c0.17,8.7,0.26,15.21,0.26,19.54c0,1.26-0.75,2.01-2.25,2.25
		c-2.04,0.36-6.64,0.54-13.8,0.54c-7.22,0-11.85-0.17-13.88-0.54c-1.33-0.24-2.14-0.62-2.44-1.18c-0.13-0.24-0.17-1.14-0.17-2.7
		c0-4.16,0.09-10.39,0.26-18.73c0.19-8.31,0.28-14.59,0.28-18.79c0-17.08-0.66-30.68-1.99-40.77c-0.13-0.96-0.17-1.61-0.17-1.91
		c0-1.2,0.81-1.8,2.42-1.8c1.69,0,4.26,0.17,7.71,0.54c3.47,0.36,6.06,0.56,7.82,0.56c1.74,0,4.35-0.15,7.84-0.45
		c3.49-0.32,6.11-0.47,7.84-0.47c1.46,0,2.16,0.62,2.16,1.82C700.45,361.49,700.39,362.07,700.28,362.97z M682.95,352.4
		c-5.03,0-9.21-1.33-12.53-3.96c-3.6-2.89-5.4-6.79-5.4-11.74c0-4.67,1.86-8.53,5.59-11.53c3.43-2.76,7.54-4.16,12.34-4.16
		c4.69,0,8.76,1.41,12.19,4.24c3.66,3,5.51,6.81,5.51,11.44C700.65,347.18,694.75,352.4,682.95,352.4z M805.78,380.9
		c-0.28,8.25-0.41,14.44-0.41,18.6c0,2.46,0.02,6.15,0.09,11.1c0.06,4.93,0.09,8.61,0.09,11.08c0,17.14-3.6,29.44-10.82,36.9
		c-7.46,7.65-19.84,11.46-37.17,11.46c-5.06,0-11.93-0.81-20.65-2.44c-11.12-2.04-16.69-4.44-16.69-7.2c0-1.16,1.31-7.05,3.88-17.7
		c0.43-1.67,1.09-2.51,1.99-2.51c0.3,0.04,0.62,0.17,0.99,0.34c9.26,4.59,17.83,6.86,25.71,6.86c4.33,0,8.63-1.07,12.9-3.24
		c5.16-2.59,7.76-5.83,7.76-9.75v-6.04c-6.13,5.76-14.01,8.66-23.63,8.66c-11.31,0-20.59-4.05-27.88-12.17
		c-7.03-7.82-10.54-17.44-10.54-28.86c0-11.51,3.36-21.02,10.09-28.6c7.03-7.88,16.24-11.83,27.6-11.83
		c9.08,0,16.03,3.26,20.85,9.75c0.96,1.33,1.63,1.99,1.99,1.99c0.54,0,0.79-1.09,0.79-3.26c0-4.8,0.56-7.22,1.63-7.22
		c0.96,0,6.17,0.49,15.62,1.5c9.43,0.99,14.33,1.54,14.7,1.67c1.03,0.36,1.52,1.14,1.52,2.34
		C806.17,366.48,806.04,372.67,805.78,380.9z M908.28,445.31c-1.67,0.26-6.06,0.36-13.16,0.36c-7.58,0-12.28-0.17-14.08-0.54
		c-1.8-0.36-2.7-1.59-2.7-3.71c0-2.81,0.09-7.09,0.26-12.79c0.19-5.72,0.28-10.03,0.28-12.9c0-2.23-0.06-5.55-0.19-9.98
		c-0.11-4.41-0.17-7.73-0.17-9.96c0-8.23-3.58-12.36-10.73-12.36c-2.36,0-5.08,1.03-8.21,3.06c-3.36,2.29-5.06,4.54-5.06,6.77v48.72
		c0,1.97-0.92,3.09-2.79,3.32c-2.12,0.26-6.41,0.36-12.9,0.36c-7.05,0-11.61-0.17-13.71-0.54c-1.86-0.3-2.81-1.29-2.81-2.98
		c0-4.69,0.02-11.76,0.09-21.19c0.06-9.45,0.09-16.54,0.09-21.3c0-14.98-1.16-26.72-3.51-35.27c-0.11-0.54-0.17-0.99-0.17-1.35
		c0-0.96,0.45-1.63,1.35-1.99c3.79-0.41,8.85-1.07,15.15-1.97c9.58-1.86,14.96-2.81,16.16-2.81c0.66,0,1.18,2.04,1.54,6.08
		c0.32,3.94,0.84,5.96,1.46,6.06c-0.32-0.15,2.94-2.23,9.77-6.23c7.11-4.18,13.35-6.28,18.7-6.28c7.65,0,14.01,1.8,19.13,5.42
		c5.7,4.14,8.57,9.92,8.57,17.31v28.77c0,3.92,0.02,9.77,0.09,17.55c0.06,7.8,0.09,13.65,0.09,17.55
		C910.81,444.15,909.98,445.07,908.28,445.31z M1002.64,406.53c-0.66,0.13-6.88,0.79-18.66,1.99c-7.11,0.77-17.7,1.71-31.75,2.79
		c0.84,3.92,3.39,6.9,7.67,8.93c3.47,1.69,7.43,2.53,11.89,2.53c5.36,0,10.73-1.44,16.16-4.33c2.27-1.46,4.56-2.89,6.86-4.33
		c1.26,0.6,3.39,3.66,6.36,9.19c2.98,5.53,4.46,9.06,4.46,10.56c0,0.41-0.45,1.11-1.35,2.08c-7.35,7.86-18.73,11.81-34.2,11.81
		c-14.31,0-25.86-4.18-34.65-12.53c-9.02-8.48-13.52-19.82-13.52-34c0-13.84,4.03-25.18,12.08-34c8.31-9.15,19.3-13.71,33.02-13.71
		c11.55,0,21.34,4.2,29.42,12.62c8.06,8.42,12.08,18.43,12.08,30.04C1008.51,402.22,1006.56,405.69,1002.64,406.53z M1078.6,367.55
		c-0.36,3.43-0.58,5.89-0.62,7.41c0,1.74,0.02,4.05,0.09,6.94c0.11,3.54,0.17,5.89,0.17,7.03c0,2.36-1.29,3.51-3.88,3.51
		c-1.14,0-2.81-0.06-5.01-0.21c-2.19-0.15-3.81-0.24-4.91-0.24c-4.99,0-8.4,0.79-10.2,2.36c-1.8,1.56-2.7,4.71-2.7,9.47
		c0,2.59,0.04,6.51,0.13,11.76c0.09,5.27,0.15,9.19,0.15,11.78c0,1.74,0.11,4.33,0.34,7.8c0.26,3.45,0.36,6.02,0.36,7.71
		c0,1.44-0.99,2.25-2.98,2.42c-2.87,0.26-7.31,0.36-13.24,0.36c-5.72,0-10.28-0.17-13.71-0.54c-1.99-0.24-2.98-1.22-2.98-2.98
		c0-4.8,0.02-12,0.09-21.6c0.06-9.6,0.09-16.8,0.09-21.62c0-14.12-1.29-25.75-3.88-34.9c-0.13-0.54-0.17-0.99-0.17-1.35
		c0-0.9,0.45-1.5,1.35-1.8c3.3-0.36,8.14-1.03,14.53-1.99c9.49-1.86,14.4-2.79,14.7-2.79c1.07,0,1.78,1.89,2.08,5.68
		c0.28,3.62,0.79,5.51,1.5,5.66c-0.41-0.19,2.1-1.76,7.52-4.71c5.76-3.15,11.33-4.74,16.69-4.74c3.36,0,5.04,0.73,5.04,2.16
		C1079.13,361.92,1078.96,364.38,1078.6,367.55z M963.5,376.57c-3.79,0-6.92,1.61-9.38,4.8c-2.29,2.94-3.43,6.38-3.43,10.37
		c0,1.61,0.84,2.42,2.53,2.42c4.46,0,11.36-0.69,20.74-2.08c1.99-0.3,2.98-0.77,2.98-1.44c0-3.73-1.33-7.01-3.96-9.83
		C970.31,377.99,967.16,376.57,963.5,376.57z M759.01,380.45c-4.39,0-8.06,1.65-10.97,4.93c-2.91,3.28-4.37,7.11-4.37,11.51
		s1.48,8.16,4.46,11.36c2.98,3.19,6.6,4.78,10.88,4.78c4.37,0,8.03-1.63,10.95-4.86c2.91-3.26,4.37-7.07,4.37-11.46
		c0-4.39-1.46-8.18-4.37-11.4C767.04,382.08,763.38,380.45,759.01,380.45z M544.22,376.57c-3.79,0-6.92,1.61-9.38,4.8
		c-2.27,2.94-3.43,6.38-3.43,10.37c0,1.61,0.86,2.42,2.53,2.42c4.46,0,11.38-0.69,20.74-2.08c1.99-0.3,3-0.77,3-1.44
		c0-3.73-1.33-7.01-3.99-9.83C551.05,377.99,547.88,376.57,544.22,376.57z M425.24,346.28c-9.26,0-13.88,1.22-13.88,3.69
		c0,3.56-0.06,8.89-0.19,16.03c-0.11,7.11-0.17,12.45-0.17,16.01c0,3.49,0.06,8.74,0.17,15.75c0.13,7.01,0.19,12.28,0.19,15.83
		c0,2.57,4.8,3.88,14.42,3.88c10.41,0,18.6-3.47,24.53-10.39c5.59-6.56,8.4-15.17,8.4-25.88c0-10.16-3.04-18.47-9.11-24.9
		C443.45,349.62,435.35,346.28,425.24,346.28z M769.96,385.29c-2.91-3.21-6.58-4.84-10.95-4.84c-4.39,0-8.06,1.65-10.97,4.93
		c-2.91,3.28-4.37,7.11-4.37,11.51s1.48,8.16,4.46,11.36c2.98,3.19,6.6,4.78,10.88,4.78c4.37,0,8.03-1.63,10.95-4.86
		c2.91-3.26,4.37-7.07,4.37-11.46C774.33,392.3,772.87,388.51,769.96,385.29z M972.97,380.81c-2.66-2.83-5.81-4.24-9.47-4.24
		c-3.79,0-6.92,1.61-9.38,4.8c-2.29,2.94-3.43,6.38-3.43,10.37c0,1.61,0.84,2.42,2.53,2.42c4.46,0,11.36-0.69,20.74-2.08
		c1.99-0.3,2.98-0.77,2.98-1.44C976.93,386.92,975.6,383.64,972.97,380.81z M972.97,380.81c-2.66-2.83-5.81-4.24-9.47-4.24
		c-3.79,0-6.92,1.61-9.38,4.8c-2.29,2.94-3.43,6.38-3.43,10.37c0,1.61,0.84,2.42,2.53,2.42c4.46,0,11.36-0.69,20.74-2.08
		c1.99-0.3,2.98-0.77,2.98-1.44C976.93,386.92,975.6,383.64,972.97,380.81z M769.96,385.29c-2.91-3.21-6.58-4.84-10.95-4.84
		c-4.39,0-8.06,1.65-10.97,4.93c-2.91,3.28-4.37,7.11-4.37,11.51s1.48,8.16,4.46,11.36c2.98,3.19,6.6,4.78,10.88,4.78
		c4.37,0,8.03-1.63,10.95-4.86c2.91-3.26,4.37-7.07,4.37-11.46C774.33,392.3,772.87,388.51,769.96,385.29z M769.96,385.29
		c-2.91-3.21-6.58-4.84-10.95-4.84c-4.39,0-8.06,1.65-10.97,4.93c-2.91,3.28-4.37,7.11-4.37,11.51s1.48,8.16,4.46,11.36
		c2.98,3.19,6.6,4.78,10.88,4.78c4.37,0,8.03-1.63,10.95-4.86c2.91-3.26,4.37-7.07,4.37-11.46
		C774.33,392.3,772.87,388.51,769.96,385.29z M972.97,380.81c-2.66-2.83-5.81-4.24-9.47-4.24c-3.79,0-6.92,1.61-9.38,4.8
		c-2.29,2.94-3.43,6.38-3.43,10.37c0,1.61,0.84,2.42,2.53,2.42c4.46,0,11.36-0.69,20.74-2.08c1.99-0.3,2.98-0.77,2.98-1.44
		C976.93,386.92,975.6,383.64,972.97,380.81z M972.97,380.81c-2.66-2.83-5.81-4.24-9.47-4.24c-3.79,0-6.92,1.61-9.38,4.8
		c-2.29,2.94-3.43,6.38-3.43,10.37c0,1.61,0.84,2.42,2.53,2.42c4.46,0,11.36-0.69,20.74-2.08c1.99-0.3,2.98-0.77,2.98-1.44
		C976.93,386.92,975.6,383.64,972.97,380.81z M769.96,385.29c-2.91-3.21-6.58-4.84-10.95-4.84c-4.39,0-8.06,1.65-10.97,4.93
		c-2.91,3.28-4.37,7.11-4.37,11.51s1.48,8.16,4.46,11.36c2.98,3.19,6.6,4.78,10.88,4.78c4.37,0,8.03-1.63,10.95-4.86
		c2.91-3.26,4.37-7.07,4.37-11.46C774.33,392.3,772.87,388.51,769.96,385.29z M972.97,380.81c-2.66-2.83-5.81-4.24-9.47-4.24
		c-3.79,0-6.92,1.61-9.38,4.8c-2.29,2.94-3.43,6.38-3.43,10.37c0,1.61,0.84,2.42,2.53,2.42c4.46,0,11.36-0.69,20.74-2.08
		c1.99-0.3,2.98-0.77,2.98-1.44C976.93,386.92,975.6,383.64,972.97,380.81z M972.97,380.81c-2.66-2.83-5.81-4.24-9.47-4.24
		c-3.79,0-6.92,1.61-9.38,4.8c-2.29,2.94-3.43,6.38-3.43,10.37c0,1.61,0.84,2.42,2.53,2.42c4.46,0,11.36-0.69,20.74-2.08
		c1.99-0.3,2.98-0.77,2.98-1.44C976.93,386.92,975.6,383.64,972.97,380.81z"/>
</g>
</svg>
