<?xml version="1.0" encoding="utf-8"?>
<!-- Generator: Adobe Illustrator 27.7.0, SVG Export Plug-In . SVG Version: 6.00 Build 0)  -->
<svg version="1.1" id="Layer_1" xmlns="http://www.w3.org/2000/svg" xmlns:xlink="http://www.w3.org/1999/xlink" x="0px" y="0px"
	 viewBox="0 0 1417.32 1417.32" style="enable-background:new 0 0 1417.32 1417.32;" xml:space="preserve">
<style type="text/css">
	.st0{fill:#3CA0BD;}
	.st1{fill:#FACC58;}
	.st2{fill:#646765;}
	.st3{fill:#527CBE;stroke:#000000;stroke-width:0.5;stroke-miterlimit:10;}
	.st4{fill:#527CBE;}
	.st5{fill:none;stroke:#000000;stroke-width:0.5;stroke-miterlimit:10;}
</style>
<g>
	<path class="st0" d="M1410.22,746.99c0.67-15.03,2.09-30.04,2.07-45.05c-0.02-16.3-1.84-32.59-1.96-48.89
		c-0.21-29.64-5.53-58.62-10.94-87.53c-7.54-40.16-19.52-79.08-34.53-117.13c-15.51-39.25-33.99-76.93-56.05-112.94
		c-16.99-27.74-36.3-53.73-56.53-79.12c-28.06-35.24-60.14-66.55-94.98-94.8c-23.21-18.79-47.89-35.89-72.83-52.38
		c-43.82-29-90.85-51.75-140.55-68.95c-39.39-13.63-79.45-24.76-120.66-31.06c-26.59-4.05-53.42-7.87-80.25-8.73
		c-32.17-1.06-64.51,0.06-96.63,2.3c-25.97,1.82-51.92,5.6-77.49,10.52c-39.02,7.49-77.07,18.73-114.29,33.05
		c-51.85,19.92-101.06,44.88-146.61,76.57c-46.53,32.36-89.2,69.22-126.8,111.96c-24.67,28.06-47.53,57.35-67.82,88.66
		c-22.94,35.43-42.52,72.67-58.66,111.66c-19.1,46.11-34.01,93.61-42,142.89C7.41,610.96,3,644.2,1.16,677.47
		c-1.79,31.88-2.03,64.05,3.15,95.9c4.84,29.64,8.45,59.5,14.24,88.93c7.79,39.48,20.12,77.91,35.93,114.79
		c13.07,30.5,29.08,59.85,45.34,88.85c26.01,46.43,58.62,88.26,95.44,126.53c19.56,20.33,40.71,39.25,62.21,57.55
		c46.16,39.31,97.32,70.98,152.29,96.55c47.22,21.96,96.03,39.29,147.15,49.33c28.22,5.53,56.74,10.29,85.34,13
		c22,2.07,44.36,0.4,66.57,0.4v0.17c17.16,0,34.42,1.11,51.46-0.27c26.39-2.11,52.96-4.32,78.87-9.42
		c29.66-5.85,58.99-13.92,87.89-22.84c38.62-11.9,76.22-26.87,111.29-47.28c24.95-14.51,50.02-28.98,73.94-45.11
		c43.42-29.23,82.6-63.73,117.15-103.04c19.87-22.59,39.12-45.93,56.41-70.5c16.35-23.21,30.23-48.22,44.44-72.88
		c16.55-28.72,30.12-58.95,40.77-90.29c12.96-38.18,25.57-76.59,31.06-116.76c3.13-22.94,5.51-45.97,7.99-68.99
		C1410.63,757.09,1410.01,752,1410.22,746.99z M1168.37,1169.09c-117.24,116.96-260.19,181.3-425.78,189.47
		c-189.4,9.35-354.78-51.81-490.82-184.16c-128.53-125.06-195.54-279.08-198-458.97c-2.55-185.69,63.71-345.03,195.14-475.33
		C376.3,113.79,532.38,51.15,711.47,52.25c178.92,1.09,333.55,66.17,459.76,193.33c126.11,127.05,188.03,281.69,189.65,460.83
		C1359.28,886.79,1295.82,1041.94,1168.37,1169.09z"/>
	<g>
		<path class="st1" d="M830.1,1090.86c-0.51,0.94-0.85,2.04-1.56,2.8c-8.96,9.55-17.98,19.06-26.99,28.56
			c-0.24,0.25-0.57,0.4-1.27,0.88c-0.73-4.03-1.52-7.8-2.09-11.6c-0.65-4.3-0.99-8.66-1.7-12.95c-0.63-3.78-3.34-6.16-6.78-6.43
			c-3.73-0.29-6.62,1.57-7.82,5.54c-1.51,4.99-2.8,10.04-4,15.12c-0.63,2.7-1.64,4.79-4.19,6.31c-10.31,6.16-20.5,12.52-30.74,18.79
			c-0.88,0.54-1.82,0.98-3.39,1.82c0.34-4.11,0.53-7.59,0.94-11.04c0.58-4.91,1.52-9.78,1.93-14.7c0.27-3.27-1.36-6.2-4.58-6.98
			c-3.77-0.9-6.73-0.9-8.93,2.65c-2.47,3.97-4.8,8.04-6.93,12.2c-2.02,3.95-4.66,6.33-9.29,7.5c-10.52,2.65-20.82,6.17-31.23,9.29
			c-1.35,0.4-2.77,0.54-4.53,0.86c2.87-7.11,5.62-13.78,8.23-20.51c0.59-1.52,0.82-3.22,1.01-4.85c0.32-2.94-0.35-5.26-3.42-6.75
			c-3.42-1.66-6.35-1.45-8.99,1.13c-4.04,3.95-7.89,8.09-11.93,12.03c-0.95,0.93-2.34,1.92-3.58,1.98
			c-12.77,0.61-25.54,1.04-38.32,1.51c-0.93,0.03-1.86-0.08-3.47-0.15c1.4-2.04,2.46-3.69,3.62-5.27
			c3.56-4.84,7.29-9.56,10.72-14.49c3.67-5.27,1.85-10.77-4.06-12.21c-1.57-0.38-3.66,0.01-5.12,0.79
			c-4.66,2.45-9.2,5.16-13.68,7.94c-2.5,1.55-4.84,2.01-7.81,1.27c-11.52-2.91-23.11-5.53-34.67-8.28
			c-1.02-0.24-2.01-0.62-3.68-1.14c5.37-4.2,10.33-8.06,15.27-11.96c1.7-1.34,3.44-2.64,4.98-4.15c3.06-2.98,3.16-5.2,1.27-9.4
			c-1.28-2.83-4.98-4.09-8.4-3.19c-5.17,1.36-10.27,3.09-15.5,4.1c-2.36,0.45-5.32,0.22-7.42-0.86
			c-11.41-5.86-22.63-12.07-34.53-18.49c1.58-0.79,2.65-1.39,3.77-1.87c6.03-2.62,12.1-5.16,18.12-7.82
			c4.54-2.01,5.7-3.95,5.45-8.59c-0.19-3.46-2.49-5.73-5.98-5.75c-5.53-0.04-11.08,0.23-16.59-0.12c-2.35-0.15-5.16-0.92-6.84-2.44
			c-9.78-8.88-19.28-18.06-29.55-27.77c5.11-0.79,9.56-1.49,14.02-2.16c3.61-0.54,7.28-0.82,10.84-1.59
			c4.39-0.95,6.79-3.97,6.67-7.72c-0.13-3.82-2.65-6.3-7.16-7.31c-5.12-1.14-10.26-2.22-15.26-3.75c-1.62-0.5-3.22-2.09-4.17-3.59
			c-7.09-11.23-14.02-22.56-21.33-34.4c6.8,0.8,13.15,1.6,19.5,2.26c2.71,0.28,5.47,0.55,8.18,0.33c3.1-0.25,4.88-2.5,5.67-5.33
			c0.9-3.21-0.02-6.1-2.88-7.87c-4.99-3.1-10.18-5.85-15.17-8.95c-1.42-0.88-3.05-2.26-3.51-3.75
			c-4.03-12.77-7.82-25.61-11.96-39.33c3.19,1.14,5.67,1.97,8.1,2.92c4.91,1.92,9.77,3.98,14.7,5.84c4.23,1.59,7.87,0.56,9.94-2.59
			c1.94-2.97,1.4-6.91-1.69-10.1c-3.6-3.71-7.34-7.28-11.1-10.83c-2.03-1.92-2.92-4.07-2.95-6.95c-0.1-11.62-0.45-23.24-0.69-34.85
			c-0.02-1.14,0-2.29,0-4.28c4.74,3.49,8.85,6.51,12.95,9.54c2.51,1.86,4.93,3.84,7.53,5.57c3.24,2.16,6.54,1.89,9.3-0.5
			c2.37-2.05,3.03-5.44,1.29-8.81c-2.52-4.86-5.48-9.5-7.88-14.42c-0.98-2.01-1.73-4.66-1.28-6.74c2.67-12.35,5.71-24.62,8.65-36.91
			c0.11-0.45,0.43-0.85,0.92-1.79c3.41,4.28,6.66,8.34,9.9,12.42c1.65,2.07,3.24,4.18,4.93,6.21c3.12,3.77,6.24,4.68,9.74,2.93
			c3.56-1.78,4.99-4.96,3.82-9.47c-1.35-5.24-3.05-10.4-4.48-15.62c-0.32-1.18-0.66-2.76-0.15-3.72
			c6.55-12.39,13.25-24.7,20.28-37.71c2.79,6.52,5.3,12.42,7.83,18.31c0.76,1.76,1.48,3.55,2.37,5.24c2.03,3.82,5.23,5.25,9.41,3.84
			c3.33-1.12,4.65-3.72,4.54-7.33c-0.17-5.65-0.11-11.31,0.11-16.95c0.06-1.53,0.63-3.4,1.64-4.48
			c9.01-9.68,18.16-19.22,27.29-28.79c0.14-0.15,0.43-0.17,1.13-0.44c0.8,5.54,1.54,10.98,2.37,16.41c0.46,3.04,0.79,6.15,1.68,9.08
			c0.98,3.25,3.4,5.17,6.98,5.23c3.56,0.06,6.06-1.7,7.05-4.98c1.66-5.47,2.87-11.07,4.45-16.57c0.43-1.51,1.17-3.39,2.36-4.15
			c11.41-7.27,22.95-14.34,35.24-21.96c-0.36,4.65-0.59,8.47-0.95,12.27c-0.43,4.48-1.13,8.94-1.41,13.43
			c-0.22,3.56,2.01,6.59,5.14,7.35c3.46,0.84,6.51,0.11,8.46-3.13c2.29-3.8,4.74-7.54,6.58-11.55c2.08-4.52,5.24-6.96,10.04-8.26
			c11.14-3.02,22.16-6.53,33.22-9.82c0.42-0.13,0.88-0.14,2.03-0.31c-2.16,5.43-4.12,10.37-6.1,15.31
			c-1.19,2.96-2.56,5.86-3.55,8.88c-1.02,3.12,0.53,6.4,3.43,8.3c3.13,2.05,5.48,2.03,8.97-0.93c3.56-3.02,6.76-6.5,9.85-10.01
			c3.07-3.49,6.85-4.94,11.34-4.94c6.01,0,12.03,0.13,18.03-0.04c5.95-0.16,11.89-0.62,18.83-1.01c-1.97,2.81-3.39,4.93-4.9,6.98
			c-3.28,4.44-6.77,8.75-9.89,13.3c-3.3,4.82-2.34,9.57,2.76,11.6c2.13,0.85,5.4,0.19,7.64-0.87c4.43-2.09,8.52-4.9,12.71-7.48
			c2.36-1.45,4.52-1.73,7.42-1c11.88,3.01,23.89,5.55,35.84,8.28c0.65,0.15,1.26,0.5,2.47,0.99c-5.68,4.54-11,8.79-16.31,13.03
			c-1.22,0.97-2.53,1.85-3.65,2.92c-2.62,2.48-3.17,5.76-1.59,8.84c1.74,3.39,4.11,4.54,8.07,3.63c5.1-1.17,10.18-2.45,15.23-3.81
			c3.15-0.84,5.98-0.66,8.94,0.98c9.86,5.47,19.83,10.74,29.76,16.09c1.26,0.68,2.47,1.43,4.3,2.49
			c-7.31,3.12-14.14,5.97-20.91,8.97c-1.83,0.81-3.84,1.74-5.13,3.18c-3.99,4.45-1.67,10.37,4.46,11.9c1.4,0.22,2.8,0.62,4.19,0.62
			c5.63-0.01,11.27-0.14,16.9-0.22c2,1.69,4.09,3.3,6,5.09c7.81,7.32,15.56,14.69,23.32,22.05c0.68,0.64,1.28,1.36,2.4,2.57
			c-4.93,0.82-9.31,1.62-13.7,2.27c-4,0.59-8.09,0.72-12.02,1.6c-2.93,0.66-4.95,2.85-5.38,6.04c-0.46,3.43,0.48,6.48,3.92,7.67
			c5.43,1.88,10.98,3.46,16.55,4.85c2.84,0.71,4.97,1.77,6.56,4.41c6.17,10.3,12.55,20.47,18.84,30.69c0.42,0.67,0.72,1.42,1.5,2.96
			c-7.1-0.8-13.47-1.53-19.86-2.22c-1.91-0.21-3.83-0.42-5.74-0.43c-3.85-0.01-7.05,2.26-7.8,6.09c-0.62,3.17,1.01,5.83,3.68,7.55
			c3.12,2.01,6.32,3.96,9.67,5.55c5.09,2.41,8.71,5.61,10.25,11.46c2.99,11.44,6.64,22.71,10.23,34.79
			c-6.59-2.54-12.4-4.9-18.31-7.03c-3.09-1.11-6.39-2.74-9.47-2.51c-5.74,0.44-8.01,7.82-3.99,12.28
			c3.54,3.92,7.38,7.58,11.23,11.21c2.16,2.03,3.12,4.22,3.14,7.26c0.07,11.38,0.42,22.75,0.65,34.13c0.03,1.3,0,2.6,0,4.61
			c-1.5-0.96-2.59-1.57-3.59-2.31c-5.02-3.72-9.96-7.55-15.03-11.19c-4.97-3.57-9.06-3.21-11.95,1.48c-1.04,1.69-1.31,4.72-0.5,6.51
			c1.95,4.35,4.58,8.43,7.24,12.42c2.23,3.34,3.38,6.53,2.3,10.7c-3.16,12.19-5.97,24.46-9.13,37.58
			c-4.55-5.76-8.6-10.91-12.68-16.04c-1.27-1.6-2.5-3.25-3.96-4.66c-2.26-2.19-6.45-2.53-9-0.93c-2.99,1.87-4.23,5.22-3.24,8.68
			c1.47,5.15,3.15,10.26,4.29,15.49c0.44,2.04,0.29,4.66-0.64,6.47c-5.99,11.59-12.28,23.04-18.87,35.28c-1.51-3.08-2.81-5.49-3.9-8
			c-2.15-4.94-4.15-9.94-6.26-14.9c-1.3-3.04-3.7-4.93-6.97-4.78c-3.44,0.16-6.22,1.77-7.07,5.55c-0.13,0.53-0.25,1.06-0.38,1.59
			c0,4.54-0.01,9.09-0.01,13.63C830.1,1086.96,830.1,1088.91,830.1,1090.86z M712.19,720.61c-0.17-4.17-0.31-8.33-0.53-12.5
			c-0.19-3.58-1.78-5.02-5.21-4.84c-3.18,0.17-4.46,1.88-4.04,6.36c1.81-0.96,3.32-1.77,5.69-3.02c-0.67,1.53-0.83,2.92-1.49,3.23
			c-5.37,2.49-5.28,6.69-3.85,11.4c-16.03-0.01-31.76,2.5-46.91,7.48c-65.39,21.48-107.26,65.41-124.44,132.25
			c-2.49,9.69-3.74,19.8-4.52,29.8c-1.03,13.25-0.35,26.65,2.25,39.64c2.46,12.25,5.5,24.63,10.26,36.13
			c25.32,61.24,70.07,99.75,135.46,113.16c8.43,1.73,17.15,2.08,25.73,3.07c2.15,2.31,3.71,2.32,5.03,0.04
			c0.23-0.1,0.46-0.21,0.69-0.31c1.57,0.45,2.06,1.24,0.64,2.41c-1.01,0.83-2.66,1.29-3.12,2.31c-0.9,2.02-1.38,4.31-1.55,6.53
			c-0.05,0.66,1.47,1.98,2.35,2.06c2.15,0.18,4.35-0.2,7.07-0.39c0-4.17,0-8.57,0-12.97c7.67-0.79,15.39-1.27,23-2.43
			c32.13-4.92,60.98-17.57,86.4-37.77c27.77-22.05,47.44-49.9,58.72-83.62c5.08-15.18,7.57-30.81,8.59-46.73
			c0-5.09,0.01-10.17,0.01-15.26c-0.84-8.36-1.27-16.8-2.63-25.08c-2.22-13.55-5.83-26.79-11.28-39.42
			c-23.16-53.64-62.75-88.73-118.92-104.93c-12.96-3.74-26.35-5.08-39.76-6.05C714.63,720.96,713.41,720.78,712.19,720.61z
			 M495,908.25c0-4.53,0.04-8.6-0.01-12.67c-0.05-3.3-1.73-4.84-4.94-4.69c-3.26,0.16-4.55,1.84-4.15,6.37
			c1.81-0.94,3.33-1.72,5.97-3.08c-0.99,1.75-1.35,2.8-2.05,3.53c-0.98,1.03-2.74,1.6-3.21,2.75c-0.72,1.76-0.89,3.88-0.74,5.81
			c0.06,0.72,1.61,1.74,2.59,1.88C490.45,908.46,492.53,908.25,495,908.25z M928,908.26c0-4.55,0.03-8.61-0.01-12.68
			c-0.03-3.14-1.88-4.84-4.98-4.68c-3.25,0.16-4.54,1.84-4.14,6.38c1.81-0.93,3.33-1.7,5.93-3.03c-0.94,1.7-1.29,2.75-1.98,3.47
			c-0.98,1.02-2.74,1.59-3.21,2.74c-0.72,1.76-0.88,3.87-0.72,5.78c0.06,0.74,1.59,1.78,2.57,1.93
			C923.45,908.47,925.53,908.26,928,908.26z"/>
		<g>
			<path class="st2" d="M278.62,826.36c-4.44-5.28-8.96-10.49-13.27-15.88c-1.12-1.41-1.56-3.36-2.32-5.06
				c7.31-9.96,15.82-18.82,25.07-26.98c4.09-3.6,9.21-4.24,14.3-5.16c16.05-2.91,28.79-11.02,37.98-24.58
				c3.72-5.5,5.1-11.74,6.28-18.13c1.8-9.82,1.64-20.07,6.23-29.28c1.5-3.02,3.24-5.92,4.87-8.87c5.22-5.55,10.43-11.09,15.65-16.64
				c0.61-0.5,1.23-0.99,1.83-1.5c9.42-7.98,18.83-15.97,28.25-23.96c1.91-1.48,3.82-2.96,5.72-4.44
				c8.7-6.31,17.29-12.77,26.12-18.88c9.38-6.49,18.8-13.09,29.7-16.8c7.99-2.72,16.26-4.63,24.4-6.9c0.31,0.02,0.62,0.08,0.92,0.04
				c9.8-1.46,19.6-2.93,29.4-4.41c6.29-0.36,12.57-0.87,18.87-1.03c8.34-0.21,16.68-0.14,25.02-0.19c0.83,0,1.66,0,2.49,0
				c5.35,0.2,10.71,0.41,16.06,0.61c3.92,0.2,7.84,0.41,11.76,0.61c5.82,0.66,11.66,1.15,17.45,2c11.71,1.71,23.4,3.61,35.1,5.43
				c5.16,1.02,10.32,2.04,15.47,3.07c3.29,0.72,6.59,1.45,9.88,2.17c1.03,0.31,2.06,0.63,3.1,0.94c0.62,0.2,1.24,0.4,1.86,0.6
				c3.92,1.05,7.83,2.09,11.75,3.14c0.21,0.09,0.43,0.18,0.64,0.27c0.38,0.97,0.76,1.95,1.14,2.92c-0.18,4.47-0.28,8.94-0.57,13.39
				c-0.27,4.25-1.76,5.24-6.15,4.49c-3.87-0.66-7.74-1.38-11.64-1.85c-10.93-1.3-21.85-2.77-32.81-3.61
				c-10.1-0.77-20.26-1.09-30.39-1.1c-9.72-0.01-19.47,0.27-29.16,1.09c-8.32,0.71-16.62,2.08-24.82,3.68
				c-13.48,2.63-26.04,7.64-36.97,16.16c-9.5,7.41-11.09,13.59-6.54,25.53c3.3,8.64,9.59,15.57,15.34,22.73
				c6.37,7.93,13.23,15.51,18.93,23.89c5.42,7.97,4.83,11.89-0.87,18.49c-2.2,2.56-4.47,5.08-6.89,7.42
				c-1.59,1.53-1.32,2.75-0.04,4.13c0.56,0.6,1.15,1.18,1.74,1.75c9.19,8.99,18.48,17.88,27.56,26.99
				c20.05,20.11,39.99,40.35,60.01,60.49c3.48,3.5,7.17,6.81,10.69,10.14c3.51-3.19,6.73-5.87,9.66-8.84
				c2.05-2.08,3.8-2.33,5.89-0.3c0.51,0.5,1.14,0.89,1.65,1.39c10.77,10.59,21.56,21.17,32.29,31.81c1.71,1.69,3.14,3.66,5.01,5.87
				c1.67-2.4,2.7-3.9,3.74-5.39c3.74-4.54,7.49-9.08,11.23-13.62c6.54-8.06,13.07-16.12,19.61-24.17
				c5.16-6.38,10.33-12.76,15.49-19.15c5.2-6.37,10.41-12.74,15.61-19.1c1.49-1.78,2.97-3.57,4.47-5.33
				c3.39-3.98,6.79-7.95,10.19-11.93c3.95,3.37,8.02,6.61,11.81,10.15c5.25,4.91,10.29,10.05,15.42,15.1
				c3.93,4.08,7.87,8.15,11.8,12.23c6.93,7.25,13.87,14.49,20.8,21.74c1.67,1.74,3.18,1.67,4.98-0.02
				c3.93-3.67,8.57-6.36,13.85-7.28c5.05-0.88,10.23-0.99,15.35-1.44c7.87,1,15.11,3.35,21.01,9.04
				c5.08,4.89,10.29,9.66,15.62,14.29c5.62,4.88,11.44,9.52,17.18,14.27c10.56,8.56,22.25,8.93,34.37,4.3
				c6.4-2.44,12.55-5.55,18.82-8.36c4.61-0.43,9.21-1.06,13.83-1.24c3.62-0.14,7.26,0.28,10.89,0.45c3.11,1.46,6.72,2.33,9.24,4.48
				c7.7,6.57,14.54,13.99,19.25,23.12c2.58,5,1.85,10.3,1.57,15.57c-0.05,0.89-0.21,1.78-0.33,2.66c-2.3,1.52-4.29,0.28-6.32-0.71
				c-3.52-1.73-7.05-3.46-10.72-5.26c0,6.67,0,12.75,0,19.26c-1.12-0.55-2.07-1.04-3.03-1.48c-3.24-1.48-6.43-3.12-9.76-4.36
				c-3.37-1.25-4.75,0.12-4.23,3.63c0.52,3.49,0.96,7,1.3,10.51c0.22,2.32-0.69,2.87-2.84,1.79c-3.47-1.73-6.88-3.57-10.37-5.26
				c-3.29-1.6-4.16-1.03-4.17,2.56c-0.01,4.37,0,8.75,0,13.45c-1.12-0.3-1.72-0.37-2.23-0.62c-3.37-1.63-6.75-3.25-10.07-4.98
				c-3.45-1.81-5.06-1-4.99,2.73c0.03,1.5,0.59,3.02,0.48,4.5c-0.23,2.95,1.48,6.33-1.43,8.71c-5.25-2.46-10.25-4.8-15.14-7.1
				c0,5.31,0.01,9.99,0,14.67c-0.01,3.04-0.9,3.62-3.73,2.29c-3.25-1.52-6.43-3.2-9.68-4.73c-0.94-0.44-2.01-0.6-3.29-0.96
				c0,4.12,0.33,7.86-0.08,11.51c-0.59,5.35-0.7,5.96-6.37,3.56c-0.19-0.08-0.37-0.17-0.56-0.27c-3.36-1.77-6.73-3.53-10.89-5.72
				c0.73,6.6,1.37,12.44,2.01,18.28c-0.2,1.81-1.1,1.08-2.07,0.64c-3.82-1.72-7.65-3.4-11.51-5.01c-0.95-0.4-2.05-0.47-3.54-0.79
				c0,5.87,0,11.27,0,17.1c-5.9-2.01-10.74-5.97-17.37-6.5c-0.2,5.81-0.39,11.26-0.59,17.04c-5.9-2.67-10.97-4.97-16.55-7.49
				c0.3,6.27,0.57,11.85,0.9,18.62c-6.19-2.79-11.57-5.22-17.32-7.82c-0.54,6.99,0.73,12.46,5.15,16.9
				c10.42,10.48,20.8,21.01,31.31,31.4c6.42,6.35,13.07,12.48,19.61,18.71c2.9,2.84,5.8,5.69,8.71,8.53
				c3.72,3.68,7.43,7.35,11.15,11.03c2.86,2.74,5.73,5.48,8.59,8.23c7.45,7.21,14.84,14.47,22.38,21.58
				c2.08,1.96,2.47,3.05,0.12,5.36c-14.36,14.16-28.44,28.59-42.73,42.81c-11.16,11.1-22.48,22.02-33.75,33
				c-2.35,2.29-4.81,4.45-7.17,6.72c-1.32,1.26-2.23,1.58-3.74-0.07c-12.99-14.27-26.1-28.42-39.15-42.64
				c-13.81-15.04-27.58-30.11-41.39-45.15c-11.73-12.78-23.48-25.53-35.21-38.31c-0.97-1.06-1.82-2.24-3.46-3.1
				c0,2.17,0,4.35,0,7.13c-5.8-2.08-11.09-3.97-16.51-5.92c0,6.26,0,11.88,0,17.41c-4.85-2.09-9.43-4.15-14.09-6.04
				c-2.42-0.98-3.49-0.14-3.53,2.65c-0.06,3.85-0.24,7.73,0.11,11.55c0.26,2.82-0.6,2.24-2.33,1.41c-3.41-1.65-6.86-3.25-10.39-4.63
				c-1.21-0.48-3.43-0.81-3.9-0.21c-0.77,0.99-0.77,2.84-0.58,4.25c0.5,3.65,1.29,7.25,2.05,11.32c-6.7-0.14-11.39-3.76-16.91-6.49
				c-1.91,5.53-0.14,11.19-1.23,17.47c-2.65-0.85-5.1-1.46-7.42-2.42c-2.55-1.06-4.94-2.5-7.45-3.66c-0.62-0.29-1.73-0.45-2.08-0.11
				c-0.47,0.44-0.61,1.45-0.54,2.19c0.32,3.51,0.91,7,1.1,10.52c0.07,1.37-0.65,2.78-0.97,4.04c-5.59-1.95-10.67-3.72-16.56-5.76
				c0.64,6.46,1.18,11.86,1.76,17.75c-4.81-2.01-9.11-3.69-13.32-5.59c-3.54-1.6-4.22-1.24-4.23,2.71
				c-0.01,3.29,0.02,6.59-0.01,9.88c-0.01,0.99-0.16,1.97-0.28,3.42c-5.81-2.56-11.21-4.94-17.19-7.57c0.36,6.31,0.68,11.85,1.03,18
				c-1.38-0.34-2.64-0.47-3.73-0.96c-2.99-1.36-5.88-2.94-8.87-4.31c-1.25-0.57-2.65-0.81-4.32-1.3c0,4.97,0,9.48,0,14
				c0,3.2-0.4,3.58-3.32,2.34c-3.39-1.43-6.67-3.14-10.01-4.71c-1.17-0.55-2.36-1.07-3.89-1.77c0,3.51,0,6.56,0,9.6
				c-0.26,2.46-0.53,4.93-0.79,7.39c-1.26-0.25-2.56-0.36-3.76-0.77c-3.94-1.31-7.85-2.73-12.54-4.38c0.66,6.5,1.2,11.89,1.8,17.78
				c-5.98-2.44-11.53-4.71-17.3-7.06c0,6.28,0,11.75,0,17.69c-5.66-2.43-11.21-4.82-17.25-7.42c0,6.12,0,11.72,0,17.75
				c-5.67-2.41-11.17-4.74-17.18-7.29c0.29,6.15,0.55,11.8,0.85,18.29c-6.12-2.57-11.56-4.86-17.14-7.21
				c-0.28,4.39-0.53,8.23-0.77,12.08c-0.02,1.33,0.08,2.69-0.12,3.99c-0.09,0.6-0.8,1.1-1.22,1.64c-9.28-2.91-18.58-5.75-27.82-8.78
				c-1.52-0.5-3.16-1.52-4.08-2.79c-7.69-10.64-15.28-21.36-22.75-32.15c-1.47-2.12-2.3-4.67-3.43-7.03
				c-0.73-4.17,1.47-7.27,3.82-10.27c9.25-11.77,18.56-23.5,27.81-35.26c6.17-7.84,12.29-15.72,18.43-23.59
				c2.46-2.93,4.91-5.86,7.37-8.78c6.65-8.16,13.31-16.31,19.94-24.48c0.3-0.37,0.38-0.92,0.56-1.38c0.38-0.31,0.84-0.55,1.14-0.93
				c5.25-6.46,10.49-12.94,15.73-19.42c3.27-4,6.53-8.01,9.8-12.01c4.72-5.75,9.45-11.48,14.14-17.25
				c4.45-5.46,8.85-10.96,13.27-16.45c2.12-2.71,4.25-5.43,6.37-8.14c0.94-1.03,1.96-2,2.82-3.09
				c16.86-21.47,33.68-42.98,50.59-64.41c1.61-2.05,1.69-3.66-0.06-5.48c-4.33-4.52-8.64-9.05-12.96-13.57
				c-0.31-0.62-0.49-1.34-0.94-1.83c-8.22-9.02-16.49-18.01-24.71-27.03c-1.56-1.71-2.99-3.54-5.3-6.29
				c4.14-3.7,8.06-7.35,12.16-10.79c1.8-1.51,1.49-2.59,0.04-3.97c-1.86-1.78-3.66-3.62-5.48-5.44
				c-30.52-30.52-61.04-61.04-91.55-91.56c-2.76-2.76-2.74-2.78-5.5,0.1c-4.68,4.89-10.5,6.87-15.38,4.46
				c-4.8-2.37-9.57-5.04-13.76-8.33c-12.25-9.64-25.3-17.55-40.77-20.68c-4.02-0.81-8.25-1.71-12.25-1.27
				c-6.91,0.77-12.51,4.74-17.32,9.61c-5.17,5.23-10.44,10.42-15.13,16.08c-3.02,3.64-5.08,8.09-7.57,12.18
				c-3.18,6.64-5.03,13.59-5.28,21c-0.13,3.83-0.69,7.67-1.28,11.47c-0.15,0.99-1.02,2.01-1.81,2.74
				c-8.25,7.67-16.54,15.31-24.87,22.9c-1.26,1.15-2.7,2.17-4.2,2.99c-1.95,1.08-3.88,1.39-5.84-0.41
				c-10.15-9.36-20.42-18.6-30.56-27.97C289.26,836.72,283.98,831.5,278.62,826.36z M476.4,1185.45
				c-9.14-1.14-16.18,8.75-16.22,15.89c-0.05,9.2,8.96,17.16,16.34,16.82c8.94-0.42,17.18-6.04,16.71-17.14
				C492.89,1193.05,485.65,1184.59,476.4,1185.45z"/>
			<path class="st2" d="M991.05,1191.78c-5.46,5.17-11.08,10.3-16.48,15.64c-15.21,15.03-30.34,30.14-45.5,45.22
				c-2.04,2.03-4.05,4.11-6.22,5.99c-0.57,0.5-1.96,0.8-2.52,0.46c-7.63-4.68-15.19-9.48-22.74-14.29
				c-7.04-4.49-14.04-9.05-21.08-13.53c-1.52-0.97-1.59-1.82-0.36-3.12c7.62-8.03,15.12-16.18,22.8-24.15
				c8.26-8.58,16.52-17.17,25.08-25.46c11.22-10.87,22.69-21.49,34.13-32.14c2.77-2.58,3.53-2.47,5.45,0.58
				c7.23,11.56,14.37,23.18,21.51,34.79C986.94,1184.73,988.66,1187.74,991.05,1191.78z"/>
			<path class="st2" d="M973.68,569.4c4.69-4.81,9.37-9.63,14.08-14.42c3.22-3.28,6.49-6.52,9.71-9.8c1.02-1.05,2.01-1.79,3.32-0.47
				c1.24,5.02,3.02,9.97,3.62,15.06c1.07,9.13,1.42,18.34,2.07,27.52c0.63,2.89,1.25,5.78,1.88,8.67c1.27,4.12,2.26,8.35,3.84,12.35
				c6.5,16.36,16.42,30.72,27.58,44.11c12.87,15.45,26.29,30.45,39.8,45.36c8.83,9.75,18.09,19.12,27.41,28.4
				c7.05,7.03,15.51,11.6,25.72,11.85c8.4,0.2,14.66,4.18,19.72,10.06c-8.78,9.33-17.48,18.74-26.37,27.98
				c-5.91,6.14-12.17,11.94-18.11,18.05c-6.79,6.99-13.27,14.27-20.1,21.22c-5.96,6.06-12.22,11.84-18.34,17.74
				c-6.34,6.1-12.61,12.27-19.03,18.29c-4.53,4.25-10.03,6.42-16.24,6.65c-6.13,0.22-12.26,0.57-18.38,0.43
				c-3.7-0.08-7.38-0.99-11.07-1.49c-0.9-0.12-1.82-0.09-2.74-0.13c-3.17-0.47-6.33-0.98-9.51-1.41c-8.5-1.14-16.9-1.13-24.91,2.54
				c-5.09,2.22-10.24,4.34-15.27,6.7c-6.4,2.99-12.76,4.64-19.4,0.73c-0.6-0.35-1.33-0.46-2-0.69c-3.28-2.36-6.76-4.49-9.79-7.14
				c-8.26-7.2-16.26-14.71-24.49-21.94c-9.63-8.45-20.62-13.34-33.76-12.16c-8.95-0.67-17.63,0.14-25.81,4.29
				c-0.79,0.4-2.58-0.09-3.3-0.79c-4.14-4-8.11-8.2-12.13-12.32c-4.2-4.36-8.4-8.72-12.6-13.08c-4.41-4.63-8.83-9.25-13.22-13.9
				c-6.9-7.32-13.77-14.66-20.79-22.15c4.29-5.29,8.46-10.45,12.64-15.61c3.02-3.53,6.04-7.06,9.05-10.58
				c5.96-6.73,11.95-13.43,17.85-20.2c3.21-3.68,6.27-7.49,9.4-11.24c2.67-2.91,5.34-5.81,8.01-8.72
				c5.53-5.87,11.06-11.75,16.59-17.62c2.73-2.9,5.96-4.9,9.99-5.41c2.5-0.25,5.02-0.42,7.51-0.76c7.52-1.01,12.83-5.72,17.9-10.8
				c4.31-4.14,8.62-8.28,12.92-12.42c0.33-0.23,0.7-0.41,0.97-0.69c8.66-9,17.32-18,25.95-27.04c0.45-0.47,0.64-1.18,0.96-1.78
				c0.44-0.21,1.01-0.31,1.32-0.64c3.61-3.89,7.17-7.82,10.75-11.74c7.31-8.06,14.61-16.12,21.92-24.17
				C963.74,580.52,968.71,574.96,973.68,569.4z M1036.74,820.91l-0.03,0.03c10.25-2.65,17.85-8.65,22.8-18
				c3.23-4.87,4.76-10.33,5.51-16.06c0.26-6.96-2.18-12.93-6.63-18.19c-11.38-13.46-22.54-27.12-34.18-40.35
				c-17.78-20.21-35.76-40.24-53.96-60.07c-4.32-4.71-7.85-10.59-15.6-11.5c-6.94-0.82-13.68-1.28-20.31,0.93
				c-17.61,5.85-27.74,20.27-25.54,39.94c0.32,2.89,1.36,6.14,3.15,8.34c9.45,11.64,19.25,23,28.92,34.45
				c0.81,0.88,1.61,1.76,2.42,2.64c8.06,9.24,16.13,18.49,24.19,27.73c8.85,10.01,17.57,20.15,26.61,29.99
				c5.13,5.58,10.48,11.05,16.32,15.85c3.16,2.59,7.57,3.64,11.42,5.39c4.83,1.59,9.54,0.57,14.24-0.65
				C1036.29,821.22,1036.51,821.07,1036.74,820.91z M826.64,751.93c4.19-0.28,8.18-0.42,12.13-0.85c2.41-0.26,3.25-1.94,2.15-3.78
				c-5.58-9.39-21.93-10.28-27.06-1.4c-1.59,2.76-1.34,4.54,1.76,5.08C819.31,751.61,823.09,751.65,826.64,751.93z M918.63,816.56
				c2.45,0.48,4.36,1.11,6.29,1.18c4.41,0.16,8.84,0.11,13.26,0.02c2.11-0.04,4.25-0.23,6.32-0.62c3.5-0.65,4.02-2.25,2.07-5.14
				c-3.34-4.94-8.06-7.08-13.83-6.48C926.27,806.2,921.86,809.95,918.63,816.56z M826.05,755.15c-2.76,0.25-5.89,0.5-9.02,0.81
				c-4.65,0.47-5.44,1.98-2.67,5.82c1.15,1.6,2.84,3.21,4.62,3.84c2.7,0.95,5.69,1.11,8.57,1.48c6.29,0.81,9.97-3.01,13.05-7.65
				c1.43-2.15,0.83-3.22-1.67-3.42C834.78,755.7,830.62,755.46,826.05,755.15z M948.85,822.78c-8.94,0-17.74-0.05-26.54,0.11
				c-0.65,0.01-1.78,1.51-1.79,2.33c-0.02,1.09,0.62,2.38,1.37,3.26c9.08,10.74,20.98,5.93,26.8-4
				C948.9,824.09,948.79,823.5,948.85,822.78z"/>
		</g>
		<g>
			<g>
				<path class="st3" d="M981.72,660.89c-1.85-2.12-2.69-4.27-2.51-6.45c0.18-2.18,1.33-4.2,3.46-6.06l2.47,2.83
					c-1.36,1.19-2.12,2.45-2.28,3.78c-0.16,1.33,0.29,2.61,1.37,3.85c1.04,1.2,2.22,1.79,3.54,1.79c1.31-0.01,2.65-0.6,4.02-1.8
					l12.83-11.2l2.47,2.83l-12.83,11.2c-2.14,1.87-4.3,2.73-6.5,2.59C985.54,664.08,983.54,662.97,981.72,660.89z M997.7,644.92
					l2.58-2.25l5.53,6.33l-2.58,2.25L997.7,644.92z"/>
				<path class="st3" d="M996.27,677.55c-4.15-4.75-2.96-9.97,3.56-15.66c6.7-5.85,12.13-6.41,16.27-1.66
					c4.15,4.75,2.87,10.05-3.84,15.9C1005.74,681.82,1000.41,682.29,996.27,677.55z M998.77,675.36c2.45,2.81,6.11,2.09,10.96-2.15
					c5.04-4.4,6.33-8,3.88-10.81c-2.45-2.81-6.2-2.01-11.23,2.38C997.51,669.03,996.31,672.55,998.77,675.36z"/>
				<path class="st3" d="M1005.65,687.74l2.58-2.25l10.25,11.74l-2.58,2.25L1005.65,687.74z M1009.53,692.19l19.29-16.85l2.47,2.83
					L1012,695.01L1009.53,692.19z M1022.36,673.15l2.58-2.25l10.25,11.74l-2.58,2.25L1022.36,673.15z"/>
				<path class="st3" d="M1019.65,703.78l19.29-16.85l2.47,2.83l-19.29,16.85L1019.65,703.78z M1027.2,712.42l9.83-18.36l-1.09-1.25
					l4.62-4.03l1.57,1.79l-9.83,18.36l0.59,0.68l-4.62,4.03L1027.2,712.42z M1027.91,713.23l19.29-16.85l2.47,2.83l-19.29,16.85
					L1027.91,713.23z"/>
				<path class="st3" d="M1034.04,720.24l19.29-16.85l2.47,2.83l-19.29,16.85L1034.04,720.24z M1034.04,720.24l2.58-2.25
					l11.15,12.77l-2.58,2.25L1034.04,720.24z M1042.41,712.93l2.58-2.25l9.02,10.33l-2.58,2.25L1042.41,712.93z M1050.75,705.65
					l2.58-2.25l11.16,12.77l-2.58,2.25L1050.75,705.65z"/>
				<path class="st3" d="M1048.04,736.28l19.29-16.85l2.47,2.83l-19.29,16.85L1048.04,736.28z M1057.08,746.63l5.3-12.25l2.61,2.99
					l-5.07,12.52L1057.08,746.63z M1057.68,732.5l2.58-2.25l3.49,4c0.94,1.08,1.96,1.67,3.06,1.77c1.1,0.1,2.16-0.29,3.2-1.2
					c1.13-0.99,1.74-2.05,1.83-3.19c0.08-1.14-0.34-2.24-1.28-3.32l-3.44-3.94l2.3-2.58l3.73,4.27c1.75,2,2.59,3.99,2.53,5.97
					c-0.06,1.98-1.02,3.78-2.89,5.41c-1.94,1.69-3.92,2.46-5.94,2.3c-2.02-0.16-3.91-1.24-5.66-3.24L1057.68,732.5z"/>
				<path class="st3" d="M1065.9,756.73l14.55-22.29l2.54,2.91l-13.04,19.34l0.21,0.24l20.92-10.32l2.54,2.91l-24.04,11.42
					L1065.9,756.73z"/>
			</g>
		</g>
		<g>
			<g>
				<path class="st3" d="M511.84,788.96c-1.93-1.91-2.89-3.92-2.88-6.03c0.01-2.11,0.98-4.13,2.89-6.07l2.58,2.55
					c-1.22,1.24-1.86,2.5-1.92,3.79c-0.06,1.29,0.47,2.49,1.59,3.6c1.09,1.08,2.27,1.57,3.53,1.47s2.51-0.76,3.74-2.01l11.52-11.66
					l2.58,2.55l-11.52,11.66c-1.92,1.94-3.94,2.92-6.07,2.94C515.75,791.77,513.74,790.84,511.84,788.96z M526.06,772.5l2.32-2.35
					l5.77,5.71l-2.32,2.35L526.06,772.5z"/>
				<path class="st3" d="M527.03,803.98c-4.33-4.28-3.56-9.38,2.3-15.31c6.02-6.09,11.2-7,15.53-2.72
					c4.33,4.28,3.48,9.46-2.54,15.55C536.45,807.43,531.36,808.25,527.03,803.98z M529.28,801.7c2.56,2.53,6.02,1.59,10.38-2.82
					c4.52-4.58,5.51-8.13,2.95-10.66c-2.56-2.53-6.1-1.51-10.63,3.07C527.62,795.7,526.71,799.17,529.28,801.7z"/>
				<path class="st3" d="M536.79,813.13l2.32-2.35l10.7,10.58l-2.32,2.35L536.79,813.13z M540.84,817.14l17.34-17.54l2.58,2.55
					l-17.34,17.54L540.84,817.14z M551.8,797.94l2.32-2.35l10.7,10.58l-2.32,2.35L551.8,797.94z"/>
				<path class="st3" d="M551.41,827.58l17.34-17.54l2.58,2.55l-17.34,17.54L551.41,827.58z M559.28,835.37l8.13-18.33l-1.14-1.13
					l4.15-4.2l1.64,1.62l-8.13,18.33l0.62,0.61l-4.15,4.2L559.28,835.37z M560.03,836.11l17.34-17.54l2.58,2.55l-17.34,17.54
					L560.03,836.11z"/>
				<path class="st3" d="M566.42,842.43l17.34-17.54l2.58,2.55L569,844.97L566.42,842.43z M566.42,842.43l2.32-2.35l11.65,11.51
					l-2.32,2.35L566.42,842.43z M573.94,834.82l2.32-2.35l9.42,9.31l-2.32,2.35L573.94,834.82z M581.44,827.24l2.32-2.35
					l11.65,11.51l-2.32,2.35L581.44,827.24z"/>
				<path class="st3" d="M581.04,856.88l17.34-17.54l2.58,2.55l-17.34,17.54L581.04,856.88z M590.03,852.59l2.32-2.35l3.64,3.6
					c0.98,0.97,2.01,1.47,3.07,1.49c1.06,0.02,2.06-0.43,2.98-1.37c1.02-1.03,1.53-2.09,1.53-3.19c0-1.1-0.49-2.13-1.47-3.11
					l-3.59-3.55l2.02-2.64l3.89,3.84c1.83,1.8,2.78,3.66,2.86,5.57c0.08,1.91-0.71,3.71-2.39,5.4c-1.74,1.76-3.59,2.64-5.55,2.62
					c-1.96-0.01-3.85-0.92-5.67-2.73L590.03,852.59z M590.48,866.21l4.22-12.14l2.73,2.69l-3.97,12.39L590.48,866.21z"/>
				<path class="st3" d="M599.68,875.31l12.38-22.43l2.65,2.62L603.57,875l0.22,0.22l19.37-11.37l2.65,2.62l-22.29,12.64
					L599.68,875.31z"/>
			</g>
		</g>
	</g>
	<path class="st4" d="M855.18,325.02c-2.86-2.71-7.31-4.06-13.39-4.06c-4.36,0-6.69,1.1-6.97,3.27c-0.28,2.56-0.41,9.93-0.41,22.1
		c0,1.72,0.02,4.28,0.06,7.65c0.04,3.4,0.06,5.91,0.06,7.55c0,0.39,0.73,0.75,2.21,1.14c2.79,0.67,5.74,1.01,8.84,1.01
		c10.06,0,15.11-6.54,15.11-19.61C860.7,334.91,858.85,328.55,855.18,325.02z M855.18,325.02c-2.86-2.71-7.31-4.06-13.39-4.06
		c-4.36,0-6.69,1.1-6.97,3.27c-0.28,2.56-0.41,9.93-0.41,22.1c0,1.72,0.02,4.28,0.06,7.65c0.04,3.4,0.06,5.91,0.06,7.55
		c0,0.39,0.73,0.75,2.21,1.14c2.79,0.67,5.74,1.01,8.84,1.01c10.06,0,15.11-6.54,15.11-19.61
		C860.7,334.91,858.85,328.55,855.18,325.02z M855.18,325.02c-2.86-2.71-7.31-4.06-13.39-4.06c-4.36,0-6.69,1.1-6.97,3.27
		c-0.28,2.56-0.41,9.93-0.41,22.1c0,1.72,0.02,4.28,0.06,7.65c0.04,3.4,0.06,5.91,0.06,7.55c0,0.39,0.73,0.75,2.21,1.14
		c2.79,0.67,5.74,1.01,8.84,1.01c10.06,0,15.11-6.54,15.11-19.61C860.7,334.91,858.85,328.55,855.18,325.02z M855.18,325.02
		c-2.86-2.71-7.31-4.06-13.39-4.06c-4.36,0-6.69,1.1-6.97,3.27c-0.28,2.56-0.41,9.93-0.41,22.1c0,1.72,0.02,4.28,0.06,7.65
		c0.04,3.4,0.06,5.91,0.06,7.55c0,0.39,0.73,0.75,2.21,1.14c2.79,0.67,5.74,1.01,8.84,1.01c10.06,0,15.11-6.54,15.11-19.61
		C860.7,334.91,858.85,328.55,855.18,325.02z M537.62,338.44c-4.39-8.28-9.98-12.4-16.77-12.4c-6.49,0-12,4.28-16.49,12.86
		c-4.39,8.26-6.56,17.76-6.56,28.51c0,11.5,2.04,21.07,6.13,28.74c4.32,8.04,9.98,12.06,16.92,12.06c6.49,0,12-4.26,16.55-12.75
		c4.32-8.1,6.49-17.54,6.49-28.27C543.89,355.9,541.79,346.33,537.62,338.44z M855.18,325.02c-2.86-2.71-7.31-4.06-13.39-4.06
		c-4.36,0-6.69,1.1-6.97,3.27c-0.28,2.56-0.41,9.93-0.41,22.1c0,1.72,0.02,4.28,0.06,7.65c0.04,3.4,0.06,5.91,0.06,7.55
		c0,0.39,0.73,0.75,2.21,1.14c2.79,0.67,5.74,1.01,8.84,1.01c10.06,0,15.11-6.54,15.11-19.61
		C860.7,334.91,858.85,328.55,855.18,325.02z M855.18,325.02c-2.86-2.71-7.31-4.06-13.39-4.06c-4.36,0-6.69,1.1-6.97,3.27
		c-0.28,2.56-0.41,9.93-0.41,22.1c0,1.72,0.02,4.28,0.06,7.65c0.04,3.4,0.06,5.91,0.06,7.55c0,0.39,0.73,0.75,2.21,1.14
		c2.79,0.67,5.74,1.01,8.84,1.01c10.06,0,15.11-6.54,15.11-19.61C860.7,334.91,858.85,328.55,855.18,325.02z M537.62,338.44
		c-4.39-8.28-9.98-12.4-16.77-12.4c-6.49,0-12,4.28-16.49,12.86c-4.39,8.26-6.56,17.76-6.56,28.51c0,11.5,2.04,21.07,6.13,28.74
		c4.32,8.04,9.98,12.06,16.92,12.06c6.49,0,12-4.26,16.55-12.75c4.32-8.1,6.49-17.54,6.49-28.27
		C543.89,355.9,541.79,346.33,537.62,338.44z M970.09,200.48H442.21c-86.83,0-157.22,70.39-157.22,157.22v142
		c0,3.03,2.45,5.5,5.5,5.5h831.34c3.03,0,5.48-2.47,5.48-5.5v-142C1127.31,270.87,1056.92,200.48,970.09,200.48z M460.52,338.16
		c-0.09,20.85-0.13,36.48-0.13,46.93c0,18.79-0.95,33.32-2.84,43.62c-3.4,18.25-8.88,32.55-16.4,42.93
		c-0.88,1.27-1.59,1.91-2.15,1.91c-0.52,0-1.01-0.49-1.53-1.46c-1.59-3.1-4.11-7.72-7.5-13.87c-1.98-2.71-4.9-6.92-8.77-12.62
		c-0.52-0.9-0.75-1.66-0.75-2.26c0-0.67,0.24-1.4,0.75-2.15c3.4-4.88,5.57-8.21,6.49-10.02c1.78-3.53,3.16-7.95,4.13-13.31
		c1.29-7.29,1.93-19.26,1.93-35.95c0-38.61-0.82-68.56-2.47-89.82c-0.11-0.73-0.15-1.31-0.15-1.68c0-1.35,0.73-2.02,2.21-2.02
		c1.46,0,3.63,0.11,6.51,0.32c2.88,0.24,5.05,0.34,6.51,0.34c1.4,0,3.44-0.11,6.15-0.34c2.71-0.21,4.77-0.32,6.15-0.32
		c1.33,0,2,0.97,2,2.92C460.67,301.7,460.63,317.31,460.52,338.16z M556.32,426.35c-9.35,16.06-21.18,24.1-35.47,24.1
		c-14.21,0-26.01-8.11-35.41-24.34c-9.2-15.84-13.8-35.43-13.8-58.71c0-23.37,4.6-43.02,13.8-58.93
		c9.39-16.32,21.2-24.47,35.41-24.47c14.12,0,25.88,8.15,35.32,24.47c9.24,16.06,13.87,35.71,13.87,58.93
		C570.04,390.83,565.46,410.48,556.32,426.35z M608.76,403c0.28,17.82,0.41,31.15,0.41,40.01c0,1.5-0.19,2.45-0.62,2.82
		c-0.09,0.09-0.69,0.24-1.78,0.45c-2.99,0.6-6.99,0.9-12.02,0.9c-6.71,0-10.99-0.3-12.83-0.9c-1.31-0.43-1.96-1.57-1.98-3.4
		c0.04-0.56,0.24-7.2,0.6-19.93c0.84-30.42,1.25-50.41,1.25-59.94c0-8.04-0.17-20.1-0.49-36.18c-0.32-16.08-0.47-28.14-0.47-36.18
		c0-1.63,0.54-2.47,1.59-2.47c1.42,0,3.57,0.11,6.45,0.34c2.88,0.21,5.03,0.32,6.45,0.32c1.42,0,3.53-0.11,6.32-0.32
		c2.77-0.24,4.88-0.34,6.3-0.34c1.33,0,2.02,0.84,2.02,2.47c0,8.04-0.28,20.1-0.8,36.18c-0.54,16.08-0.8,28.14-0.8,36.18
		C608.35,371.87,608.48,385.2,608.76,403z M714.1,330.27c-0.45,17.16-0.67,30.08-0.67,38.7v74.28c0,2.02-0.67,3.03-2,3.03
		c-1.1,0-2.77,0.09-5.01,0.24c-2.24,0.15-3.89,0.22-4.99,0.22c-1.2,0-3.01-0.15-5.4-0.45c-2.39-0.3-4.19-0.45-5.37-0.45
		c-0.84,0-1.83-1.23-2.97-3.72c-3.31-7.29-10.77-23.43-22.36-48.46c-3.18-6.99-8-17.26-14.49-30.87c-0.19-0.45-0.54-0.9-1.03-1.35
		c-0.37,0.54-0.56,1.35-0.56,2.49c0,8.71,0.15,21.78,0.45,39.21c0.3,17.41,0.45,30.51,0.45,39.21c0,2.62-0.62,3.93-1.87,3.93h-23.86
		c-1.35,0-2.02-1.16-2.02-3.48c0-8.13,0.26-20.36,0.73-36.74c0.49-16.38,0.73-28.66,0.73-36.85c0-8.64-0.22-21.56-0.67-38.76
		c-0.43-17.2-0.65-30.1-0.65-38.65c0-1.66,0.9-2.49,2.69-2.49c2.67,0,5.96-0.28,9.87-0.88c0.92-0.15,2.73-0.64,5.46-1.48
		c2.3-0.67,4.11-1.01,5.44-1.01c0.56,0,1.4,1.29,2.56,3.83l25.73,57.6c2.3,5.18,5.78,12.77,10.43,22.77
		c1.14,2.32,2.13,3.48,2.97,3.48c0.6,0,0.9-2.92,0.9-8.79c0-7.87-0.28-19.76-0.8-35.6c-0.54-15.84-0.8-27.75-0.8-35.73
		c0-2.77,0.47-4.17,1.44-4.17c2.77,0,6.92-0.17,12.49-0.56c5.57-0.37,9.74-0.56,12.49-0.56c0.88,0,1.31,1.16,1.31,3.5
		C714.75,300.24,714.53,313.09,714.1,330.27z M797.06,429.04c-0.82,9.39-1.55,14.98-2.19,16.79c-0.56,1.44-1.31,2.15-2.28,2.15
		c-0.43,0-1.12-0.11-2.09-0.34c-3.35-0.75-13.16-1.12-29.39-1.12c-3.55,0-8.81-0.04-15.8-0.11c-6.99-0.09-12.23-0.13-15.74-0.13
		c-1.5,0-2.28-1.07-2.28-3.27c0-8.41,0.3-21.05,0.86-37.92c0.58-16.86,0.88-29.5,0.88-37.9c0-8.58-0.28-24.53-0.84-47.9
		c-0.13-6.02-0.39-14.98-0.75-26.94l-0.09-1.57c-0.09-1.74,0.49-2.6,1.74-2.6c3.4,0,8.51,0.15,15.35,0.45
		c6.84,0.3,11.95,0.45,15.35,0.45c3.35,0,8.43-0.15,15.18-0.45c6.77-0.3,11.82-0.45,15.18-0.45c2.41,0,3.78,1.46,4.15,4.39
		c0.24,1.74,0.58,6.99,1.07,15.74c0.47,8.75,0.71,14.06,0.71,15.93c0,1.59-0.45,2.36-1.38,2.36c-0.28,0-0.75-0.02-1.44-0.11
		c-12.23-1.66-23.24-2.47-32.98-2.47c-2.45,0-3.93,0.95-4.49,2.82c-0.24,0.9-0.34,3.78-0.34,8.69c0,5.1,0.45,8.49,1.38,10.13
		c0.77,1.44,2.28,2.15,4.49,2.15c0.45,0,1.35-0.06,2.69-0.17c1.33-0.11,2.43-0.17,3.31-0.17c5.8,0,11.65-0.26,17.59-0.77
		c0.52-0.09,1.78-0.28,3.81-0.58c1.57-0.3,2.79-0.45,3.72-0.45c1.05,0,1.59,0.82,1.63,2.34c0,0,0.02,0,0,0.02
		c-0.09,0.3-0.49,6.11-1.2,17.48c-0.39,6.02-0.56,12.02-0.56,18.04c0,1.5-0.67,2.24-2,2.24l-6.21-1.12
		c-2.62-0.45-8.6-0.67-17.95-0.67h-7.31c-1.89,0-2.99,0.75-3.31,2.24c-0.04,0.39-0.06,2.71-0.06,6.99c0,5.72,0.24,9.39,0.69,11.05
		c0.77,2.86,3.72,4.56,8.84,5.07c0,0,3.35,0,10.06,0c2.45,0,6.06-0.37,10.88-1.07c4.82-0.71,8.41-1.07,10.79-1.07
		c1.01,0,1.53,1.35,1.53,4.06C798.25,414.46,797.86,420.41,797.06,429.04z M888.31,446.28c-1.76,0.45-6.15,0.69-13.2,0.69
		c-6.02,0-10.1-0.24-12.28-0.69c-1.01-0.21-1.59-0.41-1.72-0.56c-0.28-0.21-0.6-0.97-0.97-2.26c-0.69-2.92-1.7-7.29-3.03-13.07
		c-1.81-7.5-4.6-18.6-8.43-33.24c-0.8-2.82-2.6-4.41-5.37-4.79c0.32,0.11-2.15,0.17-7.46,0.17c-0.69,0-1.03,1.91-1.03,5.74
		c0,5.12,0.28,12.75,0.86,22.87c0.58,10.15,0.86,17.78,0.86,22.87c0,1.29-0.19,2.04-0.62,2.26c-0.65,0.09-1.29,0.15-1.93,0.24
		c-2.71,0.3-6.94,0.45-12.68,0.45c-6.58,0-10.53-0.24-11.87-0.69c-1.33-0.45-2-1.61-2-3.48c0-8.28,0.24-20.75,0.71-37.41
		c0.49-16.68,0.73-29.2,0.73-37.54c0-31.78-0.43-56.56-1.31-74.39l-0.06-1.57c-0.04-1.27,0.67-2.15,2.17-2.6
		c1.5-0.45,8.51-0.88,21.09-1.33c8.49-0.3,15.29-0.45,20.34-0.45c10.49,0,19.05,3.87,25.69,11.59c7.48,8.73,11.24,21.31,11.24,37.75
		c0,10.99-0.97,19.74-2.9,26.27c-1.93,6.54-5.5,12.88-10.71,19.05c-1.05,1.2-1.57,2.32-1.57,3.38c0.02,0,2.82,9.42,8.41,28.29
		c5.61,18.92,8.43,29.37,8.43,31.32C889.68,445.68,889.21,446.06,888.31,446.28z M979.35,317.09c-0.13,11.67-0.17,20.45-0.17,26.31
		c0,4.64-4.54,21.78-13.61,51.38c-3.57,10.66-8.75,26.74-15.52,48.22c-0.45,1.66-0.77,2.58-0.92,2.77
		c-0.17,0.17-0.75,0.34-1.76,0.49c-2.34,0.3-5.98,0.45-10.9,0.45c-6.21,0-9.76-0.15-10.62-0.45c-0.88-0.3-1.61-1.38-2.21-3.27
		c-5.25-16.9-10.51-33.84-15.8-50.82c-8.32-27.26-12.49-42.7-12.49-46.31c0-5.93,0.13-14.86,0.39-26.77
		c0.24-11.91,0.37-20.83,0.37-26.77c0-2.77,0.47-4.17,1.4-4.17c2.75,0,6.94,0.19,12.56,0.56c5.61,0.39,9.82,0.56,12.62,0.56
		c1.16,0,1.72,0.8,1.72,2.39c0,6.08-0.26,15.22-0.8,27.43c-0.52,12.21-0.8,21.35-0.8,27.43c0,4.67,4.69,21.31,14.02,49.92
		c2.54-7.44,5.4-16.55,8.62-27.37c4.32-14.58,6.49-23.52,6.49-26.83c0-5.48-0.04-13.72-0.13-24.72
		c-0.11-11.01-0.15-19.26-0.15-24.75c0-2.02,0.22-3.16,0.62-3.38h2.21c2.52,0,6.34-0.21,11.48-0.62c5.14-0.41,8.96-0.62,11.5-0.62
		c1.38,0,2.06,0.9,2.06,2.71C979.52,296.67,979.46,305.4,979.35,317.09z M841.78,320.96c-4.36,0-6.69,1.1-6.97,3.27
		c-0.28,2.56-0.41,9.93-0.41,22.1c0,1.72,0.02,4.28,0.06,7.65c0.04,3.4,0.06,5.91,0.06,7.55c0,0.39,0.73,0.75,2.21,1.14
		c2.79,0.67,5.74,1.01,8.84,1.01c10.06,0,15.11-6.54,15.11-19.61c0-9.16-1.85-15.52-5.53-19.05
		C852.32,322.32,847.87,320.96,841.78,320.96z M520.85,326.03c-6.49,0-12,4.28-16.49,12.86c-4.39,8.26-6.56,17.76-6.56,28.51
		c0,11.5,2.04,21.07,6.13,28.74c4.32,8.04,9.98,12.06,16.92,12.06c6.49,0,12-4.26,16.55-12.75c4.32-8.1,6.49-17.54,6.49-28.27
		c0-11.29-2.11-20.85-6.28-28.74C533.23,330.16,527.64,326.03,520.85,326.03z M855.18,325.02c-2.86-2.71-7.31-4.06-13.39-4.06
		c-4.36,0-6.69,1.1-6.97,3.27c-0.28,2.56-0.41,9.93-0.41,22.1c0,1.72,0.02,4.28,0.06,7.65c0.04,3.4,0.06,5.91,0.06,7.55
		c0,0.39,0.73,0.75,2.21,1.14c2.79,0.67,5.74,1.01,8.84,1.01c10.06,0,15.11-6.54,15.11-19.61
		C860.7,334.91,858.85,328.55,855.18,325.02z M855.18,325.02c-2.86-2.71-7.31-4.06-13.39-4.06c-4.36,0-6.69,1.1-6.97,3.27
		c-0.28,2.56-0.41,9.93-0.41,22.1c0,1.72,0.02,4.28,0.06,7.65c0.04,3.4,0.06,5.91,0.06,7.55c0,0.39,0.73,0.75,2.21,1.14
		c2.79,0.67,5.74,1.01,8.84,1.01c10.06,0,15.11-6.54,15.11-19.61C860.7,334.91,858.85,328.55,855.18,325.02z M855.18,325.02
		c-2.86-2.71-7.31-4.06-13.39-4.06c-4.36,0-6.69,1.1-6.97,3.27c-0.28,2.56-0.41,9.93-0.41,22.1c0,1.72,0.02,4.28,0.06,7.65
		c0.04,3.4,0.06,5.91,0.06,7.55c0,0.39,0.73,0.75,2.21,1.14c2.79,0.67,5.74,1.01,8.84,1.01c10.06,0,15.11-6.54,15.11-19.61
		C860.7,334.91,858.85,328.55,855.18,325.02z M855.18,325.02c-2.86-2.71-7.31-4.06-13.39-4.06c-4.36,0-6.69,1.1-6.97,3.27
		c-0.28,2.56-0.41,9.93-0.41,22.1c0,1.72,0.02,4.28,0.06,7.65c0.04,3.4,0.06,5.91,0.06,7.55c0,0.39,0.73,0.75,2.21,1.14
		c2.79,0.67,5.74,1.01,8.84,1.01c10.06,0,15.11-6.54,15.11-19.61C860.7,334.91,858.85,328.55,855.18,325.02z"/>
	<g>
		<path class="st5" d="M579.92,442.88c0-0.03-0.01-0.06-0.01-0.09C579.91,442.93,579.92,442.96,579.92,442.88z"/>
		<path class="st5" d="M794.08,348.01c0,0.09,0.02,0.15,0.02,0.24C794.1,348.04,794.1,347.96,794.08,348.01z"/>
	</g>
</g>
</svg>
