<?xml version="1.0" encoding="utf-8"?>
<!-- Generator: Adobe Illustrator 27.7.0, SVG Export Plug-In . SVG Version: 6.00 Build 0)  -->
<svg version="1.1" id="Layer_1" xmlns="http://www.w3.org/2000/svg" xmlns:xlink="http://www.w3.org/1999/xlink" x="0px" y="0px"
	 viewBox="0 0 1417.32 1417.32" style="enable-background:new 0 0 1417.32 1417.32;" xml:space="preserve">
<style type="text/css">
	.st0{fill:#3CA0BD;}
	.st1{fill:url(#SVGID_1_);}
	.st2{fill:url(#SVGID_00000093870121685607798590000006226160752900191142_);}
	.st3{fill:url(#SVGID_00000152265091809979592170000006031098436542958492_);}
	.st4{fill:#646765;}
	.st5{fill:url(#SVGID_00000075878338728683562860000000785106819882737039_);}
	.st6{fill:#527CBE;}
</style>
<g>
	<path class="st0" d="M1410.22,746.62c0.67-15.02,2.09-30.03,2.07-45.03c-0.02-16.29-1.84-32.58-1.96-48.87
		c-0.21-29.62-5.53-58.59-10.94-87.49c-7.54-40.14-19.52-79.04-34.53-117.07c-15.51-39.23-33.99-76.9-56.05-112.89
		c-16.99-27.72-36.3-53.7-56.53-79.08c-28.06-35.22-60.14-66.52-94.98-94.76c-23.21-18.78-47.89-35.88-72.83-52.36
		c-43.82-28.99-90.85-51.72-140.55-68.91c-39.39-13.62-79.45-24.75-120.66-31.04c-26.59-4.05-53.42-7.87-80.25-8.73
		c-32.17-1.06-64.51,0.06-96.63,2.3c-25.97,1.82-51.92,5.6-77.49,10.51c-39.02,7.48-77.07,18.73-114.29,33.04
		c-51.85,19.91-101.06,44.86-146.61,76.53c-46.53,32.35-89.2,69.18-126.8,111.91c-24.67,28.05-47.53,57.33-67.82,88.62
		c-22.94,35.42-42.52,72.64-58.66,111.6c-19.1,46.08-34.01,93.57-42,142.82C7.41,610.65,3,643.88,1.16,677.13
		C-0.63,709-0.88,741.15,4.3,772.98c4.84,29.62,8.45,59.48,14.24,88.89c7.79,39.46,20.12,77.87,35.93,114.73
		c13.07,30.49,29.08,59.82,45.34,88.81c26.01,46.41,58.62,88.22,95.44,126.47c19.56,20.32,40.71,39.23,62.21,57.52
		c46.16,39.29,97.32,70.95,152.29,96.5c47.22,21.95,96.03,39.27,147.15,49.31c28.22,5.53,56.74,10.28,85.34,12.99
		c22,2.07,44.36,0.4,66.57,0.4v0.17c17.16,0,34.42,1.11,51.46-0.27c26.39-2.11,52.96-4.32,78.87-9.42
		c29.66-5.85,58.99-13.91,87.89-22.83c38.62-11.9,76.22-26.86,111.29-47.25c24.95-14.5,50.02-28.97,73.94-45.09
		c43.42-29.22,82.6-63.7,117.15-102.99c19.87-22.58,39.12-45.91,56.41-70.47c16.35-23.2,30.23-48.19,44.44-72.85
		c16.55-28.7,30.12-58.92,40.77-90.25c12.96-38.16,25.57-76.55,31.06-116.71c3.13-22.93,5.51-45.95,7.99-68.95
		C1410.63,756.71,1410.01,751.63,1410.22,746.62z M1168.37,1168.51c-117.24,116.9-260.19,181.21-425.78,189.38
		c-189.4,9.34-354.78-51.78-490.82-184.07c-128.53-124.99-195.54-278.94-198-458.74c-2.55-185.6,63.71-344.86,195.14-475.09
		C376.3,113.73,532.38,51.13,711.47,52.22c178.92,1.09,333.55,66.13,459.76,193.24c126.11,126.99,188.03,281.55,189.65,460.61
		C1359.28,886.35,1295.82,1041.43,1168.37,1168.51z"/>
	<g>
		<g>
			<linearGradient id="SVGID_1_" gradientUnits="userSpaceOnUse" x1="666.0023" y1="520.3954" x2="666.0023" y2="1015.8779">
				<stop  offset="9.854634e-07" style="stop-color:#F29750"/>
				<stop  offset="0.0438" style="stop-color:#F4A252"/>
				<stop  offset="0.1278" style="stop-color:#F6B154"/>
				<stop  offset="0.227" style="stop-color:#F8BE56"/>
				<stop  offset="0.3498" style="stop-color:#F9C657"/>
				<stop  offset="0.522" style="stop-color:#FACB58"/>
				<stop  offset="1" style="stop-color:#FACC58"/>
			</linearGradient>
			<path class="st1" d="M628.19,1015.82c-0.53-0.17-1.06-0.33-1.58-0.5c-0.03-100.27-0.07-200.53-0.1-300.8
				c-0.36-1.14-0.71-2.27-1.07-3.41c-0.17-0.43-0.33-0.86-0.47-1.3c0.13-2.22,0.27-4.43,0.4-6.65c0.18-0.16,0.53-0.36,0.5-0.47
				c-0.09-0.41-0.31-0.78-0.48-1.17c-0.07-47.17-0.48-94.35-0.08-141.51c0.2-23.16,18.96-40.01,42.37-39.61
				c22.02,0.38,39.03,18.18,39.12,41.06c0.13,35.44,0.17,70.89,0.26,106.33c-0.1,4.53-0.28,9.05-0.28,13.58
				c-0.02,111.37-0.02,222.74-0.02,334.11c-1.59,0.13-3.19,0.26-4.78,0.39c-0.55,0-1.1,0.01-1.64,0.01
				c-23.49-0.01-46.99-0.02-70.48-0.03C629.28,1015.84,628.73,1015.83,628.19,1015.82z"/>
			
				<linearGradient id="SVGID_00000105394497299767690630000014814921863705365437_" gradientUnits="userSpaceOnUse" x1="827.9804" y1="600.2899" x2="827.9804" y2="1015.4686">
				<stop  offset="1.589457e-07" style="stop-color:#8F4F9F"/>
				<stop  offset="0.2903" style="stop-color:#835DA7"/>
				<stop  offset="0.8892" style="stop-color:#5D78BB"/>
				<stop  offset="1" style="stop-color:#527CBE"/>
			</linearGradient>
			<path style="fill:url(#SVGID_00000105394497299767690630000014814921863705365437_);" d="M868.57,1015.47
				c-26.79-0.03-53.58-0.06-80.37-0.08c-0.03-114.72-0.07-229.44-0.1-344.16c0.06-0.59,0.13-1.18,0.19-1.77
				c-0.55-2.13-1.1-4.26-1.65-6.4c0.61-10.26,0.05-20.75,2.08-30.72c4.15-20.43,23.34-33.95,43.34-31.82
				c24.67,2.63,37.23,23,37.17,41.31c-0.37,117.84-0.18,235.68-0.17,353.52c0,3.46,0.14,6.92,0.21,10.39c0,0.64,0.01,1.28,0.01,1.93
				c0.01,2.04,0.03,4.07,0.04,6.11C869.07,1014.33,868.82,1014.9,868.57,1015.47z"/>
			
				<linearGradient id="SVGID_00000173872647262368270970000002861992544503269543_" gradientUnits="userSpaceOnUse" x1="747.516" y1="636.881" x2="747.516" y2="1015.4781">
				<stop  offset="9.854634e-07" style="stop-color:#F29750"/>
				<stop  offset="0.0438" style="stop-color:#F4A252"/>
				<stop  offset="0.1278" style="stop-color:#F6B154"/>
				<stop  offset="0.227" style="stop-color:#F8BE56"/>
				<stop  offset="0.3498" style="stop-color:#F9C657"/>
				<stop  offset="0.522" style="stop-color:#FACB58"/>
				<stop  offset="1" style="stop-color:#FACC58"/>
			</linearGradient>
			<path style="fill:url(#SVGID_00000173872647262368270970000002861992544503269543_);" d="M788.1,671.22
				c0.04,114.72,0.07,229.44,0.1,344.16c-27.16,0.03-54.31,0.06-81.47,0.09c0-111.37,0-222.74,0.02-334.11
				c0-4.53,0.19-9.05,0.28-13.58c2.49-4.92,4.47-10.18,7.55-14.7c15.49-22.72,54.59-21.74,68.33,4.1c1.08,2.04,2.47,3.91,3.72,5.87
				c0.55,2.13,1.1,4.27,1.65,6.4c-0.19,0.16-0.56,0.34-0.54,0.49C787.79,670.37,787.97,670.79,788.1,671.22z"/>
			<path class="st4" d="M674.9,1148.4c-4.78-25.49-25.74-30.21-46.02-35.21c-18.86-4.65-38.23-7.47-55.82-16.38
				c-12.46-6.32-20.3-16.27-23.06-30.06c0.02-1.6,0.04-3.2,0.06-4.8c0-2.65,0.01-5.29,0.01-7.94c1.47-0.45,2.95-0.9,4.42-1.34
				c1.59,0.01,3.19,0.01,4.78,0.02c0.55,0,1.1,0,1.64,0c60.9-0.08,121.8-0.19,182.69-0.21c36.32-0.01,72.65,0.13,108.97,0.21
				c0.55,0,1.1,0,1.64-0.01c1.6,0,3.2,0,4.79-0.01c1.47,0.44,2.94,0.89,4.41,1.33c0,2.65,0,5.3,0.01,7.95
				c-0.37,1.12-0.74,2.24-1.11,3.36c-0.17,17.95-11.82,27.67-26.48,33.26c-14.83,5.65-30.66,8.65-45.97,13.09
				c-10.28,2.98-20.77,5.66-30.52,9.94c-11.37,4.99-19.59,13.43-20.75,26.81c-0.43,1.5-1.24,3-1.24,4.5
				c-0.01,41.31,0.05,82.63,0.11,123.94c-1.4,12.13-6.83,21.76-17.07,28.78c-10.58,7.25-19.53,7.51-29.55-1.04
				c-8.38-7.16-14.57-15.99-14.82-27.74c0.05-41.32,0.12-82.63,0.11-123.95C676.14,1151.4,675.33,1149.9,674.9,1148.4z"/>
			
				<linearGradient id="SVGID_00000033328357089580742940000008791976818429065143_" gradientUnits="userSpaceOnUse" x1="584.8965" y1="680.1393" x2="584.8965" y2="1015.4877">
				<stop  offset="1.939138e-06" style="stop-color:#8C78B7"/>
				<stop  offset="0.0835" style="stop-color:#7A79B9"/>
				<stop  offset="0.1871" style="stop-color:#6A7BBC"/>
				<stop  offset="0.3162" style="stop-color:#5D7CBD"/>
				<stop  offset="0.4973" style="stop-color:#547CBE"/>
				<stop  offset="1" style="stop-color:#527CBE"/>
			</linearGradient>
			<path style="fill:url(#SVGID_00000033328357089580742940000008791976818429065143_);" d="M624.96,709.82
				c0.14,0.44,0.3,0.87,0.47,1.3c-0.04,1.13-0.08,2.25-0.12,3.38c-0.08,2.39-0.24,4.79-0.24,7.18c0,97.87,0.01,195.75,0.02,293.62
				c-26.73,0.06-53.45,0.12-80.18,0.18c-0.17-3.21-0.35-6.42-0.52-9.63c0.08-49.62,0.18-99.24,0.22-148.86
				c0.04-44.29,0.56-88.58-0.23-132.86c-0.4-22.43,13.54-39.08,32.85-43.12c19.82-4.14,37.65,6.49,46.38,26.88
				C623.9,708.61,624.5,709.19,624.96,709.82z"/>
			<path class="st4" d="M854.22,1023.84c2.66,0.05,5.33,0.1,7.99,0.15c0.66,0.31,1.31,0.62,1.97,0.93
				c7.16,3.04,4.87,9.49,3.82,14.17c-0.52,2.34-5.84,3.76-9.15,5.24c-1.33,0.6-3.08,0.24-4.64,0.32c-0.54,0-1.09,0-1.63,0.01
				c-44.61-0.08-89.21-0.22-133.82-0.22c-52.62,0.01-105.24,0.14-157.86,0.22c-0.54,0-1.09-0.01-1.63-0.01
				c-1.86-0.08-4.15,0.5-5.51-0.36c-3.71-2.37-8.52-4.69-10.11-8.27c-1.89-4.23,0.23-9.16,5.66-11.08c0.66-0.31,1.32-0.62,1.98-0.93
				c1.85-0.13,3.71-0.36,5.56-0.37c97.25-0.02,194.5-0.02,291.75-0.01c1.33,0,2.65,0.14,3.98,0.22
				C853.13,1023.85,853.67,1023.84,854.22,1023.84z"/>
			<path class="st4" d="M625.08,1015.3c-0.01-97.87-0.02-195.75-0.02-293.62c0-2.4,0.16-4.79,0.24-7.19c0,0,0.6-0.03,0.6-0.03
				s0.59,0.06,0.59,0.06c0.03,100.27,0.07,200.53,0.1,300.8c0,0-0.76,0.19-0.76,0.19L625.08,1015.3z"/>
			<path class="st4" d="M674.9,1148.4c0.43,1.5,1.24,3,1.24,4.51c0.01,41.32-0.05,82.63-0.11,123.95c-0.44-2.04-1.25-4.09-1.25-6.13
				C674.76,1229.95,674.84,1189.17,674.9,1148.4z"/>
			<path class="st4" d="M737.46,1276.86c-0.05-41.31-0.12-82.63-0.11-123.94c0-1.5,0.81-3,1.24-4.5
				c0.06,40.77,0.14,81.54,0.12,122.32C738.71,1272.77,737.89,1274.81,737.46,1276.86z"/>
			<path class="st4" d="M544.38,1005.86c0.17,3.21,0.35,6.42,0.52,9.63C544.73,1012.28,544.55,1009.07,544.38,1005.86z"/>
			<path class="st4" d="M550.06,1061.94c-0.02,1.6-0.04,3.2-0.06,4.8C550.02,1065.14,550.04,1063.54,550.06,1061.94z"/>
			<path class="st4" d="M863.42,1054.01c-1.47-0.44-2.94-0.89-4.41-1.33C860.48,1053.12,861.95,1053.56,863.42,1054.01z"/>
			<path class="st4" d="M554.49,1052.66c-1.47,0.45-2.95,0.9-4.42,1.34C551.54,1053.56,553.02,1053.11,554.49,1052.66z"/>
			<path class="st4" d="M862.31,1065.32c0.37-1.12,0.74-2.24,1.11-3.36C863.06,1063.08,862.69,1064.2,862.31,1065.32z"/>
			<path class="st4" d="M854.22,1023.84c-0.55,0-1.09,0.01-1.64,0.01C853.13,1023.85,853.67,1023.84,854.22,1023.84z"/>
			<path class="st4" d="M560.92,1052.69c-0.55,0-1.1,0-1.64,0C559.82,1052.68,560.37,1052.68,560.92,1052.69z"/>
			<path class="st4" d="M854.22,1052.68c-0.55,0-1.1,0-1.64,0.01C853.13,1052.68,853.67,1052.68,854.22,1052.68z"/>
			<path class="st4" d="M551.29,1024c-0.66,0.31-1.32,0.62-1.98,0.93C549.97,1024.63,550.63,1024.32,551.29,1024z"/>
			<path class="st4" d="M852.58,1044.66c0.54,0,1.09,0,1.63-0.01C853.67,1044.66,853.13,1044.66,852.58,1044.66z"/>
			<path class="st4" d="M700.31,1015.88c0.55,0,1.1-0.01,1.64-0.01C701.41,1015.87,700.86,1015.87,700.31,1015.88z"/>
			<path class="st4" d="M628.19,1015.82c0.55,0.01,1.1,0.02,1.65,0.02C629.28,1015.84,628.73,1015.83,628.19,1015.82z"/>
			<path class="st4" d="M868.57,1015.47c0.25-0.57,0.5-1.14,0.75-1.7C869.07,1014.33,868.82,1014.9,868.57,1015.47z"/>
			<path class="st4" d="M869.28,1007.65c0-0.64-0.01-1.28-0.01-1.93C869.27,1006.37,869.28,1007.01,869.28,1007.65z"/>
			<path class="st4" d="M625.38,701.53c0.17,0.39,0.39,0.76,0.48,1.17c0.03,0.11-0.32,0.31-0.5,0.47
				C625.37,702.62,625.37,702.08,625.38,701.53z"/>
			<path class="st4" d="M864.18,1024.92c-0.66-0.31-1.31-0.62-1.97-0.93C862.87,1024.3,863.52,1024.61,864.18,1024.92z"/>
			<path class="st4" d="M559.28,1044.65c0.54,0,1.09,0.01,1.63,0.01C560.36,1044.66,559.82,1044.66,559.28,1044.65z"/>
			<path class="st4" d="M626.5,714.52l-0.59-0.06c0,0-0.6,0.03-0.6,0.03c0.04-1.12,0.08-2.25,0.12-3.38
				C625.79,712.25,626.14,713.39,626.5,714.52z"/>
			<path class="st4" d="M788.1,671.22c-0.13-0.43-0.31-0.85-0.35-1.29c-0.01-0.14,0.35-0.32,0.54-0.49
				C788.23,670.04,788.16,670.63,788.1,671.22z"/>
		</g>
		<path class="st6" d="M594.69,374.46c0,14.93,10,22,21.86,22c16.6,0,27.13-10.49,30.83-21.23c0.8-2.36,1.31-4.99,1.31-7.33v-22.03
			C623.41,345.34,594.69,349.81,594.69,374.46z M594.69,374.46c0,14.93,10,22,21.86,22c16.6,0,27.13-10.49,30.83-21.23
			c0.8-2.36,1.31-4.99,1.31-7.33v-22.03C623.41,345.34,594.69,349.81,594.69,374.46z M939.16,204.21H473.13
			c-85.93,0-155.61,69.64-155.61,155.55v103.4h777.24v-103.4C1094.77,273.85,1025.12,204.21,939.16,204.21z M544.62,322.02
			c-12.13,12.83-31.88,19.38-54.28,19.38c-6.86,0-13.18-0.26-18.45-1.57v70.78h-22.92V236.03c11.07-1.83,25.56-3.4,44.01-3.4
			c22.66,0,39.26,5.24,49.79,14.68c9.74,8.38,15.54,21.23,15.54,36.96C558.31,300.26,553.56,312.85,544.62,322.02z M652.13,410.62
			l-1.85-15.99h-0.8c-7.12,9.97-20.81,18.87-39,18.87c-25.82,0-39-18.07-39-36.42c0-30.68,27.41-47.47,76.69-47.19v-2.62
			c0-10.49-2.9-29.37-28.98-29.37c-11.87,0-24.25,3.67-33.22,9.45l-5.27-15.21c10.53-6.81,25.82-11.28,41.9-11.28
			c39,0,48.48,26.49,48.48,51.92v47.45c0,11,0.52,21.77,2.11,30.41H652.13z M731.7,410.62h-23.2V283.75h23.2V410.62z M719.57,262.25
			c-8.17,0-13.95-6.3-13.95-14.16c0-8.12,6.04-14.42,14.49-14.42c8.69,0,14.23,6.3,14.23,14.42
			C734.6,255.95,728.8,262.25,719.57,262.25z M878.73,410.62h-23.2v-73.15c0-20.44-7.63-37.48-29.5-37.48
			c-15.29,0-27.15,10.74-31.11,23.59c-1.05,2.88-1.57,6.81-1.57,10.74v76.28h-23.2v-92.53c0-13.11-0.26-23.85-1.05-34.34h20.55
			l1.33,20.97h0.52c6.32-12.08,21.09-23.87,42.16-23.87c17.65,0,45.06,10.49,45.06,54V410.62z M976.49,301.31h-33.19v68.42
			c0,15.73,4.47,24.65,17.39,24.65c6.06,0,10.53-0.8,13.44-1.57l1.05,17.3c-4.49,1.83-11.61,3.14-20.55,3.14
			c-10.81,0-19.5-3.42-25.05-9.69c-6.58-6.81-8.94-18.09-8.94-33.03v-69.21h-19.76v-17.56h19.76v-30.43l22.66-6.02v36.44h33.19
			V301.31z M594.69,374.46c0,14.93,10,22,21.86,22c16.6,0,27.13-10.49,30.83-21.23c0.8-2.36,1.31-4.99,1.31-7.33v-22.03
			C623.41,345.34,594.69,349.81,594.69,374.46z M493.49,250.71c-10.02,0-17.65,0.8-21.61,1.85v68.68
			c5.01,1.31,11.33,1.83,18.96,1.83c27.67,0,44.55-13.37,44.55-37.73C535.39,261.99,518.8,250.71,493.49,250.71z"/>
	</g>
</g>
</svg>
