<?xml version="1.0" encoding="utf-8"?>
<!-- Generator: Adobe Illustrator 27.7.0, SVG Export Plug-In . SVG Version: 6.00 Build 0)  -->
<svg version="1.1" id="Layer_1" xmlns="http://www.w3.org/2000/svg" xmlns:xlink="http://www.w3.org/1999/xlink" x="0px" y="0px"
	 viewBox="0 0 1417.32 1417.32" style="enable-background:new 0 0 1417.32 1417.32;" xml:space="preserve">
<style type="text/css">
	.st0{fill:#777677;}
	.st1{fill:#1B1B1B;}
	.st2{fill:#646765;}
	.st3{fill:#FACC58;}
	.st4{fill:#AAA9AA;}
	.st5{fill:#FBFBFB;}
	.st6{fill:#FCFCFC;}
	.st7{fill:#FCFCFB;}
	.st8{fill:#444444;}
	.st9{fill:#FDFCFC;}
	.st10{fill:#3CA0BD;}
</style>
<g>
	<g>
		<path class="st0" d="M808.19,750.02c0.9,0.22,1.79,0.44,2.69,0.66c-2.33,0.59-4.65,1.69-6.98,1.7
			c-37.11,0.11-74.23,0.11-111.34-0.01c-2.27-0.01-4.54-1.18-6.81-1.81c0.85-0.17,1.71-0.34,2.56-0.51
			C728.26,750.04,768.23,750.03,808.19,750.02z"/>
		<path class="st1" d="M681.58,748.19c0.74,0.6,1.48,1.2,2.21,1.81C683.05,749.39,682.31,748.79,681.58,748.19z"/>
		<path class="st1" d="M808.19,750.02c-39.96,0.01-79.93,0.02-119.89,0.03c2.66-0.64,5.32-1.81,7.99-1.82
			c34.63-0.12,69.26-0.12,103.89,0C802.85,748.24,805.52,749.4,808.19,750.02z"/>
		<path class="st2" d="M830.44,796.68c-177.79-0.09-355.58-0.19-533.37-0.25c-17.29-0.01-33.56-1.36-36.09-23.72
			c-0.03-74.43-0.06-148.85-0.09-223.28c2.27-15.87,11.06-24.03,27.46-24.02c175.95,0.06,351.91-0.01,527.86,0.17
			c4.88,0,9.76,2.33,14.64,3.58c-0.09,38.68-0.18,77.36-0.27,116.05c-0.13,1.23-0.13,2.45,0.01,3.68c0,0-0.11,0.35-0.11,0.35
			c-7.1,5.24-14.19,10.47-22.33,16.47c5.17-31.29,10.09-61.11,15.11-91.51c-14.94,0-26.69,0-39.84,0
			c-10.43,58.06-20.8,115.81-31.21,173.79c14.81,0,27.87,0,40.81,0c3.29-17.18,6.46-33.7,9.82-51.26
			c10.11,14.88,19,27.96,27.88,41.04C830.63,757.41,830.54,777.05,830.44,796.68z M299.06,700.91
			c-4.97,19.13,4.55,31.05,17.44,39.35c27.68,17.82,56.02,14.52,83.91-0.83c32.41-17.84,32.53-64.96-3.36-80.43
			c-10.59-4.57-21.54-9-30.84-15.6c-5.81-4.13-10.18-11.76-12.39-18.7c-0.79-2.48,6.97-11.07,10.32-10.78
			c7.92,0.66,15.65,4.71,23.23,7.91c4.68,1.98,8.77,6.59,13.43,7.09c10.35,1.1,20.9,0.34,31.77,0.34
			c0.24-21.27-6.91-37.6-26.25-42.62c-16.73-4.34-34.77-4.52-52.27-4.82c-20.31-0.35-40.5,17.22-44.4,36.63
			c-4.91,24.45,2.57,41.01,23.89,52.19c11.95,6.27,24.64,11.32,35.88,18.63c5.15,3.35,7.6,10.84,11.27,16.45
			c-6.25,3.69-12.14,9.34-18.85,10.59c-8.35,1.55-19.37,3.56-20.96-10.96c-0.2-1.78-5.73-4.09-8.88-4.24
			C320.91,700.6,309.74,700.91,299.06,700.91z M741.78,664.83c2.86-32.49-8.71-44.62-47.47-51.28
			c-33.42-5.74-73.98,25.29-82.15,62.84c-7.09,32.55,6.96,64.75,31.4,71.96c39.33,11.61,78.27-7.81,93.82-47.17
			c-19.31-0.43-38.56-4.12-55.09,11.23c-3.77,3.5-14.89,4.24-19,1.25c-13.22-9.6-14.4-22.99-8.05-38.25
			c5.76-13.83,10.82-27.1,29.07-26.23c3.79,0.18,9.77,0.64,10.91,2.91C706.56,674.53,725.93,661.75,741.78,664.83z M463.27,655.55
			c-3.04,16.97-8.01,37.68-10.14,58.67c-1.99,19.57,11.9,33.5,31.26,34.19c10.41,0.37,20.85,0.07,30.75,0.07
			c2.07-11.03,3.83-20.37,5.59-29.75c-24.71-3.5-26.64-5.2-23.69-23.97c2.37-15.05,5.81-29.92,8.71-44.55
			c30.66-1.84,32.12-3.49,28.87-32.83c-6.78,0-13.75,0-23.17,0c1.69-11.1,3.1-20.36,4.53-29.6c-38.04-7.03-41.3-5.3-44.44,25.14
			c-23.72-4.97-18.08,15.59-22.02,27.38C448.65,642.91,456.67,648.48,463.27,655.55z M578.67,748.22
			c7.48-44.13,14.7-86.75,22.02-129.93c-15.16,0-27.46,0-40.15,0c-7.78,43.65-15.42,86.49-23.16,129.93
			C551.34,748.22,564.42,748.22,578.67,748.22z M611.87,575.39c0.15-15.5-11.4-17.11-22.49-17.46
			c-15.44-0.48-25.38,10.42-25.34,25.7c0.03,13.8,7.94,18.19,20.32,17.92C601.4,601.17,611.84,591.34,611.87,575.39z"/>
		<path class="st3" d="M830.44,796.68c0.09-19.64,0.19-39.27,0.28-58.91c-0.08-29.51-0.16-59.03-0.23-88.54c0,0,0.11-0.35,0.11-0.35
			c0-1.23-0.01-2.45-0.01-3.68c0.09-38.68,0.18-77.36,0.27-116.05c8.93,7.34,18.34,14.17,26.7,22.11
			c26.91,25.59,53.43,51.58,80.11,77.42c8.19,6.88,16.38,13.76,24.56,20.64c5.19,6.82,10.38,13.64,15.57,20.45
			c6.66,7.88,13.32,15.76,19.99,23.64c9.59,5.01,19.19,10.03,29.81,15.58c-6.01,16.34,10.71,21.98,21.5,31.19
			c2.88,2.87,5.77,5.74,8.65,8.61c1.78,2.59,3.01,5.99,5.43,7.64c37.79,25.7,43.01,63.56,37.11,104.18
			c-1.26,8.67-12.05,15.96-18.45,23.88c-1.66-0.41-3.32-0.81-4.98-1.22c-4.94-1.15-9.89-3.3-14.84-3.31
			c-64.17-0.23-128.33-0.23-192.5,0c-4.94,0.02-9.87,2.2-14.8,3.38c-1.58,0.32-3.16,0.63-4.74,0.95c-1.25-0.19-2.46-0.54-3.62-1.06
			c-1.37-1.11-2.73-2.23-4.1-3.34c-3.86-8.2-10.3-16.18-11.05-24.66C829.47,835.85,830.52,816.22,830.44,796.68z"/>
		<path class="st2" d="M1057.74,748.82c-2.88-2.87-5.77-5.74-8.65-8.61c6.59-40.55,13.19-81.09,19.86-122.15
			c13.93,0,26.32,0,39.47,0c0.39,5.27,0.77,10.4,0.98,13.13c12.99-6.23,26.8-12.85,45.12-21.63c-3.42,16.79-5.14,28.72-8.62,40.11
			c-1.01,3.32-7.12,7.32-10.79,7.22c-21.54-0.63-32.68,11.82-37.07,30.32c-4.6,19.37-6.57,39.37-10.08,61.61
			C1078.36,748.82,1068.05,748.82,1057.74,748.82z"/>
		<path class="st2" d="M962.22,649.34c-8.19-6.88-16.38-13.76-24.56-20.64c23.48-23.76,77.46-19.79,93.06,9.23
			c7.24,13.46,4.69,32.4,5.3,48.91c0.07,1.89-8.04,5.28-12.63,5.87c-8.43,1.07-17.06,0.58-25.61,0.74
			c-6.66-7.88-13.32-15.76-19.99-23.64c6.49-0.53,12.98-1.07,20.36-1.68C995.05,643.03,976.56,650.21,962.22,649.34z"/>
		<path class="st4" d="M260.9,549.43c0.03,74.43,0.06,148.85,0.09,223.28c-1.06-4.31-3.04-8.61-3.06-12.92
			c-0.2-65.8-0.2-131.6,0-197.41C257.94,558.06,259.86,553.75,260.9,549.43z"/>
		<path class="st5" d="M299.06,700.91c10.68,0,21.85-0.32,32.98,0.2c3.15,0.15,8.68,2.46,8.88,4.24
			c1.59,14.52,12.61,12.52,20.96,10.96c6.71-1.25,12.6-6.89,18.85-10.59c-3.67-5.61-6.13-13.1-11.27-16.45
			c-11.24-7.31-23.93-12.37-35.88-18.63c-21.33-11.18-28.81-27.74-23.89-52.19c3.9-19.41,24.09-36.98,44.4-36.63
			c17.49,0.3,35.53,0.48,52.27,4.82c19.34,5.02,26.49,21.35,26.25,42.62c-10.88,0-21.42,0.75-31.77-0.34
			c-4.66-0.49-8.75-5.11-13.43-7.09c-7.58-3.2-15.31-7.25-23.23-7.91c-3.35-0.28-11.11,8.31-10.32,10.78
			c2.21,6.95,6.58,14.58,12.39,18.7c9.29,6.6,20.25,11.03,30.84,15.6c35.89,15.47,35.77,62.59,3.36,80.43
			c-27.9,15.35-56.23,18.65-83.91,0.83C303.61,731.97,294.09,720.05,299.06,700.91z"/>
		<path class="st5" d="M741.78,664.83c-15.85-3.08-35.22,9.7-46.55-12.74c-1.14-2.26-7.12-2.73-10.91-2.91
			c-18.26-0.87-23.32,12.41-29.07,26.23c-6.35,15.26-5.17,28.65,8.05,38.25c4.11,2.98,15.23,2.24,19-1.25
			c16.53-15.35,35.78-11.66,55.09-11.23c-15.55,39.36-54.49,58.78-93.82,47.17c-24.44-7.21-38.49-39.41-31.4-71.96
			c8.17-37.56,48.74-68.59,82.15-62.84C733.07,620.21,744.64,632.34,741.78,664.83z"/>
		<path class="st5" d="M830.49,649.24c0.08,29.51,0.16,59.03,0.23,88.54c-8.89-13.08-17.78-26.16-27.88-41.04
			c-3.37,17.56-6.53,34.08-9.82,51.26c-12.94,0-26,0-40.81,0c10.41-57.98,20.79-115.73,31.21-173.79c13.15,0,24.91,0,39.84,0
			c-5.02,30.4-9.94,60.22-15.11,91.51C816.29,659.71,823.39,654.47,830.49,649.24z"/>
		<path class="st6" d="M463.27,655.55c-6.6-7.07-14.62-12.65-13.74-15.25c3.94-11.78-1.7-32.35,22.02-27.38
			c3.14-30.44,6.4-32.17,44.44-25.15c-1.42,9.25-2.83,18.51-4.52,29.61c9.42,0,16.39,0,23.17,0c3.25,29.34,1.78,30.99-28.87,32.83
			c-2.9,14.63-6.34,29.5-8.71,44.55c-2.96,18.76-1.02,20.46,23.69,23.97c-1.76,9.38-3.52,18.72-5.59,29.75
			c-9.91,0-20.34,0.31-30.75-0.07c-19.36-0.69-33.25-14.62-31.26-34.19C455.26,693.23,460.23,672.52,463.27,655.55z"/>
		<path class="st6" d="M578.67,748.22c-14.25,0-27.33,0-41.28,0c7.74-43.43,15.38-86.27,23.16-129.93c12.68,0,24.98,0,40.15,0
			C593.37,661.47,586.15,704.09,578.67,748.22z"/>
		<path class="st7" d="M611.87,575.39c-0.03,15.96-10.47,25.79-27.51,26.16c-12.39,0.27-20.29-4.12-20.32-17.92
			c-0.04-15.28,9.9-26.18,25.34-25.7C600.47,558.28,612.02,559.89,611.87,575.39z"/>
		<path class="st8" d="M830.59,645.21c0,1.23,0.01,2.45,0.01,3.68C830.46,647.66,830.46,646.43,830.59,645.21z"/>
		<path class="st9" d="M962.22,649.34c14.33,0.86,32.83-6.31,35.93,18.77c-7.38,0.61-13.87,1.14-20.36,1.68
			C972.6,662.98,967.41,656.16,962.22,649.34z"/>
	</g>
	<path class="st10" d="M1410.22,746.99c0.67-15.03,2.09-30.04,2.07-45.05c-0.02-16.3-1.84-32.59-1.96-48.89
		c-0.21-29.64-5.53-58.62-10.94-87.53c-7.54-40.16-19.52-79.08-34.53-117.13c-15.51-39.25-33.99-76.93-56.05-112.94
		c-16.99-27.74-36.3-53.73-56.53-79.12c-28.06-35.24-60.14-66.55-94.98-94.8c-23.21-18.79-47.89-35.89-72.83-52.38
		c-43.82-29-90.85-51.75-140.55-68.95c-39.39-13.63-79.45-24.76-120.66-31.06c-26.59-4.05-53.42-7.87-80.25-8.73
		c-32.17-1.06-64.51,0.06-96.63,2.3c-25.97,1.82-51.92,5.6-77.49,10.52c-39.02,7.49-77.07,18.73-114.29,33.05
		c-51.85,19.92-101.06,44.88-146.61,76.57c-46.53,32.36-89.2,69.22-126.8,111.96c-24.67,28.06-47.53,57.35-67.82,88.66
		c-22.94,35.43-42.52,72.67-58.66,111.66c-19.1,46.11-34.01,93.61-42,142.89C7.41,610.96,3,644.2,1.16,677.47
		c-1.79,31.88-2.03,64.05,3.15,95.9c4.84,29.64,8.45,59.5,14.24,88.93c7.79,39.48,20.12,77.91,35.93,114.79
		c13.07,30.5,29.08,59.85,45.34,88.85c26.01,46.43,58.62,88.26,95.44,126.53c19.56,20.33,40.71,39.25,62.21,57.55
		c46.16,39.31,97.32,70.98,152.29,96.55c47.22,21.96,96.03,39.29,147.15,49.33c28.22,5.53,56.74,10.29,85.34,13
		c22,2.07,44.36,0.4,66.57,0.4v0.17c17.16,0,34.42,1.11,51.46-0.27c26.39-2.11,52.96-4.32,78.87-9.42
		c29.66-5.85,58.99-13.92,87.89-22.84c38.62-11.9,76.22-26.87,111.29-47.28c24.95-14.51,50.02-28.98,73.94-45.11
		c43.42-29.23,82.6-63.73,117.15-103.04c19.87-22.59,39.12-45.93,56.41-70.5c16.35-23.21,30.23-48.22,44.44-72.88
		c16.55-28.72,30.12-58.95,40.77-90.29c12.96-38.18,25.57-76.59,31.06-116.76c3.13-22.94,5.51-45.97,7.99-68.99
		C1410.63,757.09,1410.01,752,1410.22,746.99z M1168.37,1169.09c-117.24,116.96-260.19,181.3-425.78,189.47
		c-189.4,9.35-354.78-51.81-490.82-184.16c-128.53-125.06-195.54-279.08-198-458.97c-2.55-185.69,63.71-345.03,195.14-475.33
		C376.3,113.79,532.38,51.15,711.47,52.25c178.92,1.09,333.55,66.17,459.76,193.33c126.11,127.05,188.03,281.69,189.65,460.83
		C1359.28,886.79,1295.82,1041.94,1168.37,1169.09z"/>
</g>
</svg>
